<?xml version="1.0" standalone="no"?>
<!DOCTYPE svg PUBLIC "-//W3C//DTD SVG 20010904//EN"
 "http://www.w3.org/TR/2001/REC-SVG-20010904/DTD/svg10.dtd">
<svg version="1.0" xmlns="http://www.w3.org/2000/svg"
 width="2031.000000pt" height="2031.000000pt" viewBox="0 0 2031.000000 2031.000000"
 preserveAspectRatio="xMidYMid meet">

<g transform="translate(0.000000,2031.000000) scale(0.100000,-0.100000)"
fill="#000000" stroke="none">
<path d="M8740 20294 c-312 -50 -430 -71 -630 -111 -1249 -251 -2469 -757
-3550 -1472 -773 -511 -1432 -1087 -2044 -1785 -1203 -1371 -1993 -2993 -2341
-4801 -3 -16 -14 -84 -26 -150 -11 -66 -22 -131 -24 -145 -4 -21 -18 -117 -41
-280 -8 -58 -46 -423 -54 -520 -5 -58 -14 -261 -21 -452 -18 -488 -2 -939 50
-1433 11 -104 22 -206 25 -225 86 -605 202 -1149 342 -1602 191 -619 374
-1078 645 -1621 424 -846 940 -1598 1589 -2312 83 -92 514 -525 521 -525 4 0
37 34 74 75 l68 75 -234 238 c-241 244 -522 557 -676 752 -6 8 -32 40 -56 70
-338 423 -720 1007 -982 1500 -549 1036 -923 2190 -1070 3305 -9 66 -18 134
-20 150 -3 17 -12 104 -20 195 -8 91 -20 209 -25 263 -24 233 -34 740 -22
1089 7 188 17 383 22 432 6 50 17 161 25 246 14 147 47 421 59 485 3 17 15 86
26 155 114 699 336 1474 612 2140 61 147 74 175 155 355 283 625 688 1295
1141 1890 123 162 401 498 492 595 8 9 67 72 129 141 593 644 1374 1278 2152
1746 332 201 748 416 1134 588 704 313 1555 566 2340 696 66 11 131 22 145 24
25 4 231 32 305 41 22 2 51 7 65 9 21 4 242 24 450 41 317 26 939 28 1305 4
127 -8 517 -44 590 -54 17 -3 71 -10 120 -16 121 -16 376 -56 505 -81 1235
-235 2388 -686 3445 -1349 1129 -707 2123 -1656 2891 -2760 468 -672 865
-1431 1147 -2191 300 -809 493 -1640 572 -2459 8 -85 19 -196 25 -245 23 -211
34 -755 22 -1102 -7 -186 -17 -378 -22 -428 -5 -49 -17 -164 -25 -255 -9 -91
-18 -181 -20 -200 -21 -159 -30 -217 -56 -378 -273 -1703 -994 -3311 -2090
-4662 -232 -287 -382 -452 -688 -762 l-224 -227 69 -73 c38 -40 70 -75 72 -78
6 -10 488 482 646 660 477 536 936 1185 1291 1825 117 210 350 686 439 895
363 853 586 1646 722 2560 118 796 134 1729 44 2555 -11 105 -22 204 -25 220
-2 17 -13 95 -24 175 -12 80 -23 156 -26 170 -3 14 -12 63 -20 110 -8 47 -17
99 -20 115 -40 220 -149 684 -216 914 -268 922 -652 1783 -1152 2581 -315 501
-657 956 -1067 1415 -221 247 -580 601 -855 841 -1414 1237 -3128 2054 -4965
2368 -414 71 -286 66 -1741 65 -1051 -1 -1331 -4 -1399 -15z"/>
<path d="M9740 20035 c-8 -2 -100 -9 -205 -15 -163 -9 -255 -17 -435 -35 -121
-13 -313 -37 -355 -45 -27 -5 -86 -14 -130 -20 -236 -33 -667 -124 -960 -202
-664 -178 -1239 -395 -1845 -697 -227 -113 -265 -133 -505 -269 -569 -323
-1180 -766 -1690 -1227 -262 -237 -798 -792 -926 -960 -13 -17 -55 -68 -94
-115 -231 -278 -485 -632 -717 -1000 -306 -485 -633 -1145 -845 -1705 -237
-625 -416 -1306 -514 -1955 -12 -74 -22 -144 -24 -155 -2 -11 -10 -85 -19
-165 -9 -80 -21 -181 -26 -225 -47 -399 -55 -1315 -15 -1745 3 -30 7 -77 10
-105 7 -80 45 -418 50 -445 2 -14 13 -83 24 -155 193 -1267 646 -2502 1324
-3605 137 -222 521 -783 556 -810 3 -3 33 -41 66 -84 89 -118 317 -389 462
-549 134 -148 549 -567 562 -567 4 0 24 18 45 39 l38 39 -137 134 c-179 173
-415 423 -573 608 -125 146 -169 200 -253 305 -436 550 -771 1079 -1083 1705
-427 859 -691 1666 -870 2660 -28 154 -71 496 -100 785 -41 409 -41 1200 -1
1665 9 102 45 437 50 460 3 14 12 74 20 133 97 696 307 1468 590 2172 162 402
378 850 562 1165 11 19 36 62 55 95 258 446 599 930 961 1360 268 319 776 833
1063 1075 167 141 287 240 379 312 1202 936 2612 1576 4093 1858 87 17 180 34
207 40 28 5 102 17 165 26 63 9 124 18 135 20 48 7 477 53 545 59 176 14 633
35 754 35 128 0 663 -24 801 -35 68 -6 500 -53 540 -59 11 -2 72 -11 135 -20
1199 -178 2424 -618 3475 -1249 202 -121 489 -306 602 -388 33 -24 71 -51 83
-59 136 -92 480 -364 689 -545 269 -232 666 -624 911 -900 344 -387 674 -831
976 -1310 190 -300 420 -733 601 -1130 312 -685 575 -1542 698 -2275 9 -52 18
-106 20 -120 3 -14 12 -72 21 -130 8 -58 17 -116 20 -130 4 -24 41 -364 49
-460 40 -436 39 -1335 0 -1665 -3 -22 -14 -121 -25 -220 -109 -1007 -370
-1964 -791 -2905 -63 -140 -269 -550 -346 -688 -298 -534 -555 -915 -947
-1406 -186 -234 -529 -609 -770 -844 -69 -67 -126 -126 -126 -130 1 -4 16 -25
35 -46 31 -35 36 -37 52 -25 46 37 435 434 554 566 352 391 614 729 904 1168
273 413 488 795 675 1195 44 96 85 182 90 192 5 9 43 96 84 195 320 763 539
1548 656 2348 7 44 14 89 16 100 2 11 11 83 19 160 8 77 20 174 25 215 9 74
24 300 38 575 15 299 -8 1110 -38 1345 -5 41 -17 138 -25 215 -8 77 -17 151
-20 165 -2 14 -13 86 -24 160 -154 1058 -537 2188 -1074 3172 -277 507 -642
1051 -985 1468 -29 36 -61 74 -69 85 -178 228 -714 785 -1003 1042 -218 193
-568 478 -711 579 -24 17 -78 56 -119 86 -684 496 -1543 949 -2350 1238 -346
124 -818 265 -1065 319 -27 5 -108 24 -180 40 -137 31 -405 81 -540 101 -44 7
-89 14 -100 16 -11 2 -94 13 -185 24 -91 11 -178 22 -195 25 -45 6 -250 24
-415 36 -137 11 -1028 22 -1060 14z"/>
<path d="M11020 13701 c-19 -4 -69 -15 -111 -24 -42 -9 -89 -23 -105 -32 -16
-8 -35 -15 -42 -15 -6 0 -29 -9 -49 -20 -21 -11 -50 -20 -64 -20 -17 0 -47
-16 -78 -40 -39 -31 -59 -40 -90 -40 -30 0 -42 -5 -55 -25 -21 -31 -20 -35 3
-35 13 0 21 -8 23 -22 2 -19 11 -24 52 -30 27 -4 53 -13 57 -20 14 -22 10 -48
-8 -55 -10 -3 -35 -21 -56 -40 -39 -35 -65 -41 -85 -21 -17 17 -15 -2 2 -21 9
-11 12 -29 7 -61 -7 -48 -15 -52 -83 -35 -23 6 -29 2 -52 -37 -14 -25 -26 -60
-26 -79 0 -42 -10 -80 -19 -75 -16 11 -29 -13 -35 -66 -7 -58 5 -81 18 -35 6
19 8 20 16 6 13 -22 -5 -76 -36 -110 -17 -18 -24 -37 -24 -67 0 -39 1 -41 23
-33 19 7 23 4 33 -23 6 -17 20 -35 32 -41 24 -10 29 -25 10 -25 -6 0 -8 -3 -5
-7 4 -3 2 -12 -4 -19 -17 -21 0 -80 32 -108 29 -26 30 -46 2 -74 -18 -18 -16
-36 6 -63 l18 -22 31 22 c18 12 37 19 42 16 17 -11 59 23 73 58 13 31 14 31
21 10 4 -13 14 -23 22 -23 18 0 54 58 54 88 0 13 7 30 16 39 9 9 12 22 8 32
-4 9 -9 33 -12 53 -2 20 -10 39 -18 42 -13 5 -54 -29 -54 -45 0 -3 -14 -12
-31 -19 -26 -11 -32 -11 -40 1 -13 20 -12 23 17 54 14 15 30 39 35 52 5 14 18
27 29 30 21 6 27 28 10 38 -5 3 -10 17 -10 31 0 18 -5 24 -22 24 -20 0 -21 -1
-7 -16 19 -18 13 -64 -8 -64 -9 0 -13 6 -10 14 4 9 1 13 -6 10 -14 -5 -47 45
-47 71 0 23 30 78 51 93 23 16 24 35 3 53 -14 11 -19 10 -34 -9 -24 -29 -44
-28 -65 4 -15 23 -16 32 -5 64 12 36 14 38 56 36 29 -1 50 -8 67 -24 33 -31
65 -29 73 6 13 57 18 68 46 97 17 17 37 41 47 55 9 14 26 33 39 43 12 10 31
38 42 63 11 24 29 48 39 54 17 9 21 5 32 -28 7 -20 13 -64 14 -97 0 -33 4 -65
8 -71 3 -6 -2 -19 -13 -29 -21 -19 -24 -15 -21 31 1 13 -7 24 -23 32 -22 10
-27 8 -41 -11 -20 -29 -19 -38 10 -67 47 -48 75 -83 75 -95 0 -14 -68 -70 -97
-79 -27 -9 -47 -61 -33 -86 13 -24 13 -97 0 -105 -19 -12 -10 -52 20 -83 18
-19 27 -38 24 -47 -8 -21 -40 -19 -49 3 -12 29 -26 -21 -15 -57 6 -23 4 -34
-11 -49 -30 -33 -33 -67 -10 -99 21 -27 21 -31 6 -72 -8 -23 -26 -56 -40 -73
-46 -55 -44 -115 5 -112 l22 2 -8 -132 c-8 -141 -8 -152 1 -207 6 -30 2 -40
-24 -68 -25 -26 -31 -42 -31 -76 0 -53 -8 -75 -26 -75 -8 0 -31 -16 -50 -35
-26 -27 -34 -43 -32 -63 6 -49 67 -33 88 23 6 15 10 6 19 -40 16 -82 30 -108
48 -93 10 8 13 22 9 40 -3 15 -1 28 4 28 6 0 10 -16 10 -35 0 -21 8 -43 19
-54 18 -18 18 -21 2 -69 -9 -28 -19 -53 -22 -57 -4 -3 -15 14 -24 39 -17 43
-20 46 -55 46 -60 0 -107 25 -115 60 -8 35 -18 37 -63 10 -67 -41 -90 -12 -31
40 45 39 66 99 47 134 -15 29 -29 37 -58 31 -19 -4 -27 0 -35 17 -17 40 -39
28 -45 -24 -8 -65 -20 -75 -55 -46 -25 22 -27 28 -20 66 4 23 11 42 16 42 5 0
9 9 9 20 0 13 -7 20 -20 20 -18 0 -20 -7 -22 -82 -4 -175 0 -316 12 -337 6
-12 14 -53 17 -91 5 -54 11 -74 30 -95 l25 -26 24 24 c15 15 32 23 43 20 10
-3 22 0 26 7 5 8 10 8 20 0 8 -6 31 -10 52 -8 l38 3 5 66 c3 42 11 71 22 82 9
9 19 22 22 29 5 10 7 10 12 0 3 -7 15 -21 25 -31 21 -20 32 -52 31 -91 -1 -14
-2 -34 -2 -45 -1 -10 -6 -25 -12 -32 -9 -11 -14 -11 -29 3 -9 8 -26 14 -36 12
-24 -4 -31 -72 -9 -94 9 -8 16 -24 16 -35 0 -25 16 -24 30 1 6 11 17 20 24 20
34 0 26 -149 -10 -193 -28 -33 -30 -52 -9 -61 8 -3 15 -1 15 4 0 6 8 10 19 10
13 0 20 9 25 30 4 21 11 30 25 30 28 0 38 19 45 90 4 45 2 77 -8 105 -16 45
-12 65 15 65 13 0 20 -10 25 -34 3 -19 4 -41 1 -48 -2 -7 5 -23 16 -36 18 -19
19 -26 9 -42 -7 -11 -12 -28 -12 -37 0 -10 -15 -33 -32 -50 -79 -78 -86 -96
-54 -128 13 -13 27 -42 31 -64 8 -49 27 -53 81 -16 21 14 43 24 48 21 6 -2 18
-7 27 -10 18 -8 59 25 59 46 0 9 12 36 26 62 42 74 59 74 55 0 -1 -25 3 -52
10 -60 7 -9 9 -30 5 -59 -6 -38 -11 -45 -30 -45 -12 0 -26 -4 -31 -9 -6 -5
-27 -14 -47 -21 -27 -8 -38 -17 -38 -31 0 -10 5 -19 11 -19 5 0 15 -14 21 -31
l10 -30 30 33 c16 18 31 43 35 55 10 42 38 48 97 19 60 -29 86 -33 86 -12 0
12 34 32 50 29 3 0 29 -4 58 -8 l52 -7 0 42 c0 38 5 47 58 96 31 29 61 54 66
54 5 0 17 10 27 21 15 18 20 19 24 7 3 -8 5 -19 4 -24 -6 -18 13 -53 30 -59
16 -5 30 -32 31 -57 0 -5 -9 -8 -20 -8 -24 0 -43 -40 -38 -79 6 -49 48 -29 71
34 2 6 13 2 25 -8 20 -18 21 -18 31 2 20 37 14 51 -23 51 l-34 0 15 31 15 31
29 -30 c18 -18 28 -39 27 -53 -1 -13 2 -34 6 -46 6 -19 3 -25 -19 -33 -14 -5
-28 -17 -31 -25 -4 -8 -12 -15 -19 -15 -18 0 -47 -29 -40 -41 4 -5 19 -9 34
-9 33 0 51 -16 51 -46 0 -28 5 -31 55 -35 40 -4 40 -4 45 35 5 39 6 40 60 53
30 8 65 17 78 20 23 6 84 73 96 107 3 10 11 73 16 140 8 100 8 129 -5 173 -25
87 -100 129 -178 100 -68 -26 -212 -48 -372 -58 -238 -14 -305 0 -411 86 -41
34 -58 57 -84 115 -7 14 -20 42 -31 62 -17 33 -19 59 -19 226 0 132 -4 197
-13 214 -9 18 -13 132 -15 438 -3 363 -2 418 12 435 13 16 15 53 16 202 0 164
2 186 20 215 11 18 20 43 20 54 0 12 6 27 14 33 8 7 17 26 20 44 8 45 76 113
126 128 22 7 47 20 56 31 10 10 23 18 31 18 7 0 13 5 13 10 0 6 6 10 14 10 8
0 18 9 21 20 4 11 10 18 15 15 5 -3 12 9 15 27 11 52 22 67 45 61 11 -3 20
-10 20 -17 0 -6 11 -24 25 -41 24 -29 25 -30 40 -10 27 37 36 45 50 45 22 0
18 -16 -10 -44 -14 -14 -25 -28 -25 -31 0 -4 -7 -14 -16 -22 -15 -15 -14 -17
8 -29 25 -15 88 -19 88 -6 0 4 17 7 38 6 23 0 41 5 49 15 8 11 27 16 59 16 46
0 48 1 63 38 13 34 13 42 -1 65 -10 18 -15 51 -14 102 1 74 1 75 28 78 33 4
108 -61 129 -110 12 -29 11 -32 -13 -52 -15 -12 -28 -36 -32 -57 -3 -20 -15
-44 -26 -54 -11 -10 -20 -26 -20 -36 0 -10 -4 -21 -10 -24 -5 -3 -10 -17 -10
-29 0 -19 7 -25 38 -30 82 -13 102 -8 147 37 25 25 49 62 59 92 10 28 33 80
52 117 40 81 42 106 10 157 -24 38 -81 81 -106 81 -12 0 -47 15 -145 61 -87
41 -169 52 -430 55 -137 1 -266 -1 -285 -5z m465 -184 c0 -8 4 -19 8 -23 4 -4
7 0 7 8 0 28 27 40 70 33 22 -4 40 -11 40 -17 0 -5 -11 -24 -25 -42 -14 -18
-25 -37 -25 -42 0 -5 -18 -26 -40 -47 l-40 -37 -20 20 c-11 11 -34 23 -50 27
-25 5 -30 10 -30 35 0 40 15 65 53 88 36 22 52 21 52 -3z m-401 -33 c12 -30 6
-51 -17 -61 -16 -8 -25 -7 -35 3 -17 19 -15 34 10 55 26 23 34 24 42 3z m141
-55 c4 -6 -3 -20 -15 -31 -24 -23 -52 -16 -58 15 -5 22 61 37 73 16z m135 -43
c0 -18 -30 -30 -43 -17 -9 9 11 23 41 30 1 1 2 -5 2 -13z m234 -30 c9 -14 6
-21 -16 -37 -16 -12 -28 -26 -28 -32 0 -13 -30 -47 -41 -47 -5 0 -13 9 -19 20
-10 18 -7 22 19 31 20 7 31 18 31 30 0 24 22 60 34 56 5 -2 14 -11 20 -21z
m-662 -56 c-19 -41 -33 -59 -45 -60 -16 0 -18 5 -12 43 8 50 30 77 61 77 l23
0 -27 -60z m-546 -456 c3 -13 3 -36 -1 -51 -5 -16 -7 -40 -6 -55 2 -17 -3 -28
-10 -28 -6 0 -18 -8 -25 -17 -7 -10 -15 -15 -19 -11 -10 10 -14 78 -4 78 5 0
6 24 3 54 -4 47 -2 55 13 58 28 6 43 -2 49 -28z m148 -363 c3 -5 -7 -25 -23
-44 -21 -27 -31 -33 -40 -24 -14 14 -14 50 1 65 14 14 54 16 62 3z m26 -955
c0 -3 -4 -8 -10 -11 -5 -3 -10 -1 -10 4 0 6 5 11 10 11 6 0 10 -2 10 -4z m520
-808 c0 -13 -8 -36 -19 -51 -14 -22 -20 -25 -28 -15 -14 18 -6 60 14 76 24 18
33 15 33 -10z"/>
<path d="M12340 13674 l-40 -36 0 -172 c0 -205 10 -367 21 -360 14 8 11 -22
-7 -77 -12 -35 -14 -63 -9 -96 4 -27 10 -42 12 -35 7 19 29 14 46 -10 l15 -23
24 23 c13 12 31 22 40 22 22 0 36 20 40 55 2 22 8 30 23 30 11 0 19 -4 19 -10
-1 -5 -5 -27 -8 -49 -9 -48 13 -46 30 3 6 18 16 36 24 41 12 8 11 36 -5 72 -5
13 0 20 20 28 19 7 25 15 21 28 -4 11 3 28 16 42 l23 25 5 -35 c7 -44 3 -57
-20 -63 -16 -4 -17 -8 -4 -58 15 -57 31 -74 51 -57 25 21 24 0 -4 -58 -22 -46
-35 -61 -58 -67 -17 -5 -38 -14 -48 -19 -21 -11 -43 3 -52 33 -8 25 -19 24
-34 -5 -7 -13 -23 -28 -36 -34 -12 -6 -35 -31 -51 -55 -19 -30 -38 -47 -56
-51 -25 -5 -28 -10 -27 -43 0 -21 3 -32 6 -25 2 6 13 12 23 12 10 0 21 7 24
16 10 26 48 12 65 -23 15 -30 51 -46 51 -23 0 19 48 11 55 -10 3 -11 11 -20
16 -20 5 0 9 -7 9 -15 0 -35 37 -9 50 34 10 36 2 60 -32 98 -16 17 -18 25 -8
42 14 27 33 16 27 -15 -3 -18 0 -24 13 -24 10 0 21 7 24 16 9 24 26 6 26 -27
0 -17 7 -37 15 -45 25 -26 18 -64 -21 -107 -31 -34 -35 -44 -30 -75 3 -21 0
-46 -8 -61 -7 -14 -21 -43 -30 -63 -8 -21 -20 -38 -26 -38 -5 0 -10 -7 -10
-16 0 -8 -5 -24 -10 -35 -9 -16 -13 -17 -24 -7 -8 8 -31 12 -64 10 -47 -4 -52
-6 -52 -28 0 -27 -3 -28 -31 -14 -25 14 -24 30 1 30 31 0 52 40 41 78 -8 27
-6 34 13 49 28 23 68 88 59 97 -4 4 0 4 9 1 9 -4 21 -19 28 -35 9 -21 16 -26
32 -22 27 7 60 80 47 104 -10 19 -39 25 -39 8 0 -20 -24 -9 -57 25 -19 19 -40
35 -47 35 -7 0 -17 -16 -22 -37 -11 -45 -56 -82 -77 -64 -19 15 -46 -10 -48
-42 -4 -85 -5 -616 -1 -674 4 -65 7 -72 28 -77 23 -6 24 -11 24 -86 0 -82 -12
-108 -35 -76 -11 14 -14 -14 -20 -150 -4 -92 -5 -208 -1 -258 4 -50 5 -109 4
-131 -2 -22 -3 -132 -3 -245 0 -179 2 -209 17 -232 10 -16 14 -29 8 -33 -11
-7 19 -45 36 -45 7 0 14 -7 18 -15 3 -9 18 -15 36 -15 28 0 34 5 47 40 17 43
38 52 48 21 10 -32 31 -44 54 -32 28 15 35 48 21 92 -10 28 -10 42 -2 52 13
16 2 69 -16 75 -7 2 -19 -13 -27 -33 -9 -19 -19 -33 -24 -30 -15 8 -23 57 -12
68 6 6 11 18 11 27 0 8 9 31 19 51 11 20 22 56 26 81 6 39 4 48 -13 60 -16 10
-20 25 -20 66 -1 57 2 60 30 35 16 -14 22 -15 36 -5 45 33 72 20 72 -34 0 -44
16 -85 42 -105 20 -16 20 -16 -10 -48 -26 -29 -32 -31 -52 -21 -17 9 -26 8
-46 -4 -21 -14 -22 -19 -12 -36 14 -22 67 -43 89 -35 25 9 42 -10 30 -33 -6
-11 -11 -34 -11 -51 0 -23 -7 -34 -30 -48 -30 -17 -35 -31 -31 -90 2 -21 -5
-43 -19 -60 -27 -34 -19 -39 87 -47 93 -8 136 4 171 49 22 28 22 28 22 598 0
403 -3 581 -12 608 -9 30 -8 49 2 82 7 23 16 44 21 47 4 3 116 5 248 3 200 -2
241 0 251 12 19 23 81 18 122 -10 l36 -24 6 -128 c8 -162 16 -229 25 -214 4 6
25 14 47 18 21 3 51 12 66 19 15 8 29 14 32 14 5 0 2 -22 -5 -35 -3 -5 -12
-31 -19 -57 -7 -26 -25 -58 -41 -74 -16 -15 -29 -34 -29 -41 0 -7 -14 -16 -30
-20 -20 -3 -32 -13 -36 -28 -3 -12 -4 -163 -2 -336 4 -298 5 -316 25 -352 37
-66 63 -85 144 -103 41 -9 97 -18 124 -20 28 -2 84 -6 125 -10 66 -6 81 -4
118 15 82 42 76 -71 69 1234 -4 639 -10 1176 -13 1194 -5 26 -1 36 20 56 24
22 26 31 26 103 0 67 -3 82 -20 97 -17 14 -20 29 -20 101 0 55 -4 86 -12 88
-13 5 -26 85 -28 173 -2 108 -65 217 -149 260 -46 23 -61 25 -176 25 -117 0
-130 -2 -169 -25 -23 -14 -48 -35 -54 -47 -14 -27 -13 -861 1 -874 5 -5 26 -9
48 -9 34 0 39 -2 39 -22 0 -27 -8 -29 -25 -7 -15 21 -52 11 -60 -16 -3 -11 -8
-104 -10 -207 -2 -104 -6 -196 -10 -205 -4 -10 -23 -27 -42 -39 -32 -20 -39
-21 -88 -10 -34 8 -132 12 -267 10 -220 -1 -258 4 -274 40 -9 21 -21 205 -34
541 -5 151 -15 295 -20 320 -5 25 -13 119 -16 210 -6 141 -10 172 -29 215 -28
61 -45 78 -113 104 -44 17 -75 21 -182 21 l-130 0 -40 -36z m1417 -706 c-3 -7
-5 -2 -5 12 0 14 2 19 5 13 2 -7 2 -19 0 -25z m30 -24 c-3 -3 -12 -4 -19 -1
-8 3 -5 6 6 6 11 1 17 -2 13 -5z m-1262 -224 c3 -5 1 -10 -4 -10 -6 0 -11 5
-11 10 0 6 2 10 4 10 3 0 8 -4 11 -10z m-149 -352 c-4 -18 -9 -48 -13 -65 -6
-36 -5 -35 -27 -27 -23 9 -20 60 5 95 27 39 43 37 35 -3z m145 -210 c-6 -29
-13 -63 -17 -76 -5 -18 -3 -21 11 -16 20 8 35 -11 35 -45 0 -25 56 -121 70
-121 4 0 11 12 14 28 13 54 29 82 46 82 10 0 20 -6 23 -14 9 -24 -8 -121 -26
-146 -32 -47 -20 -81 35 -94 21 -5 30 -2 38 14 6 11 22 23 35 26 25 6 38 33
39 79 1 26 22 24 74 -8 28 -18 40 -32 36 -42 -4 -8 -13 -15 -20 -15 -8 0 -19
-11 -26 -25 -6 -13 -27 -32 -47 -41 -19 -9 -44 -28 -54 -41 -10 -12 -28 -23
-40 -23 -12 0 -31 -7 -41 -15 -11 -8 -35 -15 -53 -15 -18 0 -42 -6 -53 -12
-30 -19 -43 2 -41 67 1 31 -2 61 -6 68 -4 6 -6 28 -4 47 1 23 -3 41 -13 49
-21 17 -36 5 -36 -29 0 -46 -40 -48 -54 -2 -4 13 -15 22 -27 22 -10 0 -19 6
-19 13 -1 6 -3 35 -6 64 -4 36 -1 61 10 80 8 15 17 39 20 53 3 16 16 29 36 37
25 9 30 17 30 44 0 29 27 76 37 65 3 -2 0 -28 -6 -58z m1426 -143 c-7 -14 -20
-25 -29 -25 -10 0 -18 -7 -18 -16 0 -9 -6 -14 -12 -11 -15 5 -13 44 3 64 6 7
24 13 39 13 26 0 27 -2 17 -25z m-685 -57 c-9 -9 -12 -7 -12 12 0 19 3 21 12
12 9 -9 9 -15 0 -24z m-876 -513 c10 -8 25 -15 32 -15 28 0 81 -52 87 -84 5
-23 16 -37 41 -51 26 -14 34 -25 34 -46 0 -36 -21 -42 -87 -28 -44 10 -53 16
-53 34 0 57 -47 135 -82 135 -24 0 -45 50 -26 62 19 11 32 10 54 -7z m314
-310 c0 -14 -4 -25 -10 -25 -5 0 -10 11 -10 25 0 14 5 25 10 25 6 0 10 -11 10
-25z m-177 -247 c2 -7 -2 -25 -9 -40 -8 -15 -16 -37 -17 -49 -8 -49 -41 -28
-52 32 -6 31 -3 39 16 53 28 19 56 21 62 4z m-163 -45 c0 -19 -3 -24 -10 -17
-6 6 -8 18 -4 27 9 24 14 21 14 -10z m40 -203 c0 -5 -4 -10 -10 -10 -5 0 -10
5 -10 10 0 6 5 10 10 10 6 0 10 -4 10 -10z m1358 -115 c17 -5 22 -11 17 -23
-4 -10 -10 -25 -12 -34 -3 -10 -14 -18 -24 -18 -11 0 -22 -1 -25 -2 -3 -2 -12
14 -19 34 -13 40 -4 62 25 54 8 -3 25 -7 38 -11z"/>
<path d="M12423 11971 c-27 -22 -29 -37 -8 -45 8 -3 13 -11 10 -18 -7 -20 21
-50 42 -46 26 5 31 83 7 109 -21 23 -23 23 -51 0z"/>
<path d="M6068 13616 c-71 -25 -83 -39 -96 -107 -16 -83 -10 -221 12 -284 10
-27 31 -65 49 -82 l31 -33 292 0 293 0 7 -22 c7 -22 7 -22 15 -3 4 11 8 14 8
6 1 -10 4 -11 14 -2 18 14 54 -10 42 -29 -6 -10 -9 -9 -17 1 -7 10 -8 8 -5 -8
3 -16 0 -23 -9 -23 -17 0 -18 -35 -15 -355 2 -126 7 -237 12 -245 7 -13 8 -13
9 0 0 12 3 12 11 -2 11 -19 2 -71 -12 -63 -20 13 -28 -91 -30 -395 -3 -413 -3
-620 -1 -790 1 -74 0 -254 -1 -400 -2 -149 1 -274 6 -285 6 -11 25 -34 44 -52
27 -25 43 -32 71 -32 21 1 46 0 57 -2 12 -2 19 1 18 8 -3 13 35 29 45 19 3 -4
0 -12 -6 -18 -18 -18 -14 -28 12 -28 13 0 26 7 30 15 8 23 32 18 53 -11 16
-22 28 -26 93 -30 64 -5 80 -2 108 15 18 12 36 31 41 44 11 30 2 2537 -10
2559 -12 23 -11 72 3 103 l11 25 251 0 c279 0 283 1 330 71 65 96 76 134 76
253 0 133 -2 136 -101 167 -61 18 -108 19 -884 23 -662 4 -827 2 -857 -8z
m1235 -147 c22 -31 76 -29 89 4 4 9 16 17 27 17 23 0 86 -50 74 -59 -5 -3 -20
-22 -33 -41 -30 -43 -45 -54 -90 -60 -34 -5 -35 -6 -32 -47 3 -38 0 -43 -27
-58 -17 -8 -31 -20 -31 -25 0 -6 -6 -10 -14 -10 -8 0 -16 -10 -18 -22 -3 -26
-43 -37 -62 -18 -11 12 -1 21 21 22 5 0 23 16 41 35 23 25 32 45 32 69 0 19 6
37 15 41 8 5 16 20 17 33 2 19 -2 26 -20 28 -35 5 -60 93 -29 105 21 9 25 8
40 -14z m-263 -23 c0 -18 -26 -40 -34 -27 -9 14 4 41 20 41 8 0 14 -6 14 -14z
m-1002 -29 c3 -21 -1 -27 -17 -27 -25 0 -34 14 -26 41 10 29 39 20 43 -14z
m1112 24 c0 -5 -7 -14 -15 -21 -8 -7 -15 -10 -15 -7 0 3 -3 12 -6 21 -4 12 0
16 15 16 12 0 21 -4 21 -9z m-260 -240 c0 -27 -35 -71 -57 -71 -18 0 -17 25 2
40 8 7 15 22 15 34 0 29 21 51 32 33 4 -6 8 -23 8 -36z m180 -75 c0 -8 -9 -18
-20 -21 -11 -4 -34 -18 -51 -32 -22 -19 -33 -23 -41 -15 -14 14 -16 11 42 50
50 34 70 39 70 18z m-43 -531 c2 -6 -3 -20 -11 -30 -19 -26 -41 -7 -31 25 7
21 35 25 42 5z m-81 -142 c20 -27 17 -38 -17 -72 -30 -31 -31 -32 -14 -57 9
-14 23 -28 31 -31 23 -9 16 -32 -12 -39 -42 -11 -59 15 -57 86 2 46 -1 60 -12
60 -9 0 -12 -6 -9 -15 8 -19 -22 -65 -41 -65 -15 0 -16 4 -18 58 -1 22 4 27
24 29 13 0 31 1 39 2 8 1 24 15 35 31 23 35 33 37 51 13z m-60 -290 c25 -33
13 -44 -21 -20 -10 8 -15 19 -11 25 10 16 17 15 32 -5z m24 -120 c0 -17 -39
-52 -57 -53 -20 0 -15 34 8 64 17 21 24 24 35 15 8 -6 14 -18 14 -26z m134
-1389 c10 -38 -7 -51 -38 -30 -39 25 -34 56 10 56 15 0 24 -8 28 -26z m-66
-79 c15 -33 5 -55 -25 -55 -20 0 -24 4 -20 19 2 10 1 25 -4 32 -5 8 -3 17 4
21 21 13 33 9 45 -17z"/>
<path d="M7386 13415 c4 -8 7 -15 9 -15 1 0 8 7 15 15 10 13 9 15 -8 15 -15 0
-20 -5 -16 -15z"/>
<path d="M8133 13608 c-13 -15 -15 -41 -12 -155 2 -76 4 -178 4 -228 1 -162 5
-209 15 -199 5 5 10 26 12 46 1 21 8 40 15 43 8 2 22 22 31 43 19 42 44 72 61
72 6 0 29 16 50 36 22 19 56 40 76 45 24 7 39 18 46 35 11 32 43 28 47 -4 3
-17 -2 -25 -17 -29 -14 -3 -25 -19 -33 -44 -7 -25 -17 -39 -28 -39 -9 0 -25
-9 -35 -20 -10 -11 -24 -20 -32 -20 -19 0 -16 -51 6 -77 11 -13 24 -23 29 -23
20 0 35 33 36 77 1 46 2 47 36 50 39 5 60 25 60 60 0 26 21 30 44 8 18 -18 60
-20 74 -2 14 16 87 14 108 -4 21 -17 12 -59 -19 -93 -30 -33 -43 -33 -51 -1
-4 16 -13 25 -26 25 -13 0 -22 -9 -26 -25 -7 -27 -14 -31 -31 -14 -15 15 -79
-16 -122 -61 -33 -33 -58 -91 -47 -108 8 -13 66 -1 66 13 0 11 20 25 36 25 11
0 1 -22 -22 -50 l-26 -31 24 -22 c14 -12 33 -27 43 -33 13 -7 16 -17 12 -35
-8 -32 -47 -74 -56 -60 -4 6 -22 14 -40 17 -27 6 -33 4 -38 -15 -6 -24 -23
-29 -23 -6 0 8 -5 15 -10 15 -7 0 -8 -13 -4 -35 5 -27 3 -35 -8 -35 -8 0 -22
-6 -32 -13 -22 -16 -11 -47 16 -47 10 0 16 5 13 10 -3 6 1 10 9 10 9 0 16 7
16 15 0 9 9 25 19 37 24 25 68 18 79 -13 8 -20 8 -19 21 5 30 56 71 35 76 -40
1 -27 6 -61 10 -76 6 -23 2 -32 -26 -58 -18 -16 -38 -30 -44 -30 -6 0 -16 -12
-22 -27 -7 -16 -18 -35 -24 -44 -21 -28 -4 -52 31 -44 25 6 30 3 35 -18 9 -33
-8 -62 -43 -76 -16 -7 -34 -23 -40 -37 -17 -36 -32 -29 -32 15 0 22 -6 44 -15
51 -9 7 -17 11 -18 9 -2 -2 -14 -19 -26 -36 -30 -45 -74 -46 -96 -3 -9 17 -20
30 -26 30 -5 0 -15 -13 -20 -30 -6 -16 -15 -30 -21 -30 -5 0 -16 -7 -25 -15
-21 -22 -24 -156 -3 -172 12 -9 13 -14 3 -24 -7 -7 -13 -32 -13 -55 0 -65 59
-125 77 -78 9 24 48 64 63 64 6 0 25 -9 41 -21 33 -23 39 -64 11 -73 -19 -6
-48 -62 -58 -113 -11 -57 48 -49 85 11 17 28 20 39 12 55 -15 27 -15 29 18 46
28 14 31 14 46 -8 8 -12 19 -22 23 -23 16 -2 48 -18 65 -32 24 -21 21 -49 -8
-68 -14 -9 -25 -20 -25 -25 0 -5 11 -19 25 -31 26 -23 33 -54 14 -60 -7 -2
-12 -30 -13 -66 -2 -71 -9 -82 -36 -57 -16 14 -22 15 -35 5 -8 -7 -15 -22 -15
-34 0 -12 -6 -30 -13 -40 -12 -16 -14 -16 -32 1 -31 28 -49 87 -34 114 11 21
10 21 -47 14 -33 -5 -66 -8 -74 -7 -8 1 -34 3 -57 5 -39 4 -41 2 -47 -26 -10
-49 -7 -232 5 -264 7 -21 23 -36 48 -48 38 -17 38 -18 25 -44 -8 -14 -14 -31
-14 -38 0 -6 -14 -13 -32 -15 -29 -3 -33 -7 -41 -43 -5 -25 -4 -59 3 -91 9
-44 15 -53 38 -57 29 -6 62 21 62 51 0 36 45 -33 50 -76 5 -46 15 -57 62 -67
23 -4 30 -14 45 -63 22 -76 17 -152 -12 -152 -17 0 -45 -38 -45 -62 0 -32 26
-19 46 22 10 21 29 45 42 51 12 7 27 29 33 49 9 28 17 36 36 38 14 1 32 10 39
20 12 16 14 16 34 -4 l22 -21 -31 -14 c-52 -23 -57 -92 -8 -97 15 -2 32 -12
37 -22 15 -28 2 -67 -23 -74 -31 -8 -103 -76 -109 -103 -6 -21 -2 -23 28 -23
19 0 34 5 34 10 0 6 19 10 43 10 27 0 37 -3 28 -9 -9 -6 -4 -10 18 -13 38 -6
44 2 31 37 -5 14 -7 37 -4 50 5 21 11 23 61 22 53 -1 56 -3 70 -34 10 -25 20
-33 38 -33 13 0 36 -11 51 -25 27 -25 84 -35 84 -15 0 6 -4 10 -9 10 -5 0 -14
13 -19 29 -7 19 -19 31 -33 33 -42 6 -54 75 -34 203 1 6 3 16 3 23 1 6 9 12
18 12 9 0 32 17 50 37 28 31 38 36 52 27 9 -6 18 -21 20 -33 2 -12 26 -44 53
-73 27 -28 49 -53 49 -55 0 -3 -7 -11 -15 -19 -17 -17 -20 -54 -6 -54 5 0 19
13 31 30 18 26 24 28 41 17 10 -6 22 -19 24 -29 4 -10 25 -21 56 -28 43 -10
53 -10 75 5 20 13 29 14 39 5 20 -16 38 -8 40 18 1 16 -4 22 -17 22 -17 0 -18
2 -4 15 8 8 20 15 26 15 15 0 80 50 80 62 0 5 -7 16 -16 25 -19 20 -15 70 6
63 8 -2 39 -4 69 -5 58 0 77 -16 42 -34 -31 -17 -58 -62 -65 -112 l-7 -46 43
-7 c24 -3 58 -9 76 -12 24 -5 38 -2 53 12 15 14 25 16 47 8 22 -8 28 -16 30
-47 2 -28 -1 -37 -12 -37 -8 0 -18 5 -21 10 -3 6 -15 10 -26 10 -26 0 -26 -43
1 -70 16 -16 17 -20 5 -20 -8 0 -15 -4 -15 -10 0 -17 59 -11 99 10 22 10 55
38 75 61 33 39 35 46 38 123 l3 81 33 11 c38 12 43 28 10 32 -30 4 -48 29 -48
65 0 20 -10 39 -33 60 -76 73 -27 67 -587 67 l-506 0 -29 30 c-23 24 -29 39
-28 71 1 22 8 48 15 56 20 25 16 568 -5 591 -15 18 -24 52 -33 139 l-6 52 36
-6 c32 -5 38 -3 42 14 3 11 16 25 29 31 37 17 58 56 51 96 -5 23 -2 37 9 46
18 15 45 6 45 -15 0 -9 7 -23 15 -31 33 -33 0 -115 -54 -135 -14 -6 -20 -13
-15 -18 11 -11 93 -22 149 -21 22 0 65 0 95 -1 30 -1 87 -1 125 -1 215 1 227
3 203 42 -10 18 -10 24 0 27 14 5 16 39 2 48 -6 4 -5 16 2 33 6 15 10 52 9 82
-1 51 1 57 28 73 27 16 31 16 46 1 10 -10 15 -27 12 -41 -3 -17 1 -26 12 -30
34 -10 60 -26 65 -39 10 -25 -21 -155 -40 -168 -17 -13 -16 -14 5 -25 31 -17
99 -4 126 23 19 19 23 41 34 167 17 213 -2 276 -92 300 -43 11 -683 19 -762 8
-65 -8 -95 7 -129 66 -21 36 -26 53 -21 83 3 20 10 41 15 46 16 16 13 221 -3
235 -10 7 -16 49 -21 128 -3 65 -8 129 -11 143 -8 46 7 55 87 52 40 -1 79 2
86 7 8 5 15 26 16 47 1 22 5 45 10 52 10 17 33 15 40 -4 7 -18 -10 -54 -25
-54 -6 0 -9 -10 -7 -22 3 -23 3 -23 211 -24 114 -1 207 2 207 7 0 4 -12 11
-27 16 -25 9 -27 12 -24 65 l2 55 -43 9 -43 10 2 64 c3 83 10 110 27 110 8 0
27 15 43 33 43 49 52 52 63 23 6 -16 17 -26 29 -26 35 0 51 -12 51 -36 0 -29
-40 -94 -57 -94 -7 0 -13 -9 -13 -20 0 -29 21 -25 50 10 14 17 30 30 37 30 19
0 16 -9 -8 -29 -21 -17 -21 -18 -5 -50 10 -17 26 -41 37 -52 17 -17 21 -31 18
-55 -1 -7 22 -24 33 -24 4 0 13 6 20 13 7 7 25 20 40 30 21 13 26 14 22 3 -5
-13 22 -29 42 -25 5 1 20 1 34 0 l24 -1 -21 -21 c-11 -12 -36 -24 -54 -28 -33
-8 -32 -8 23 -15 53 -8 59 -6 106 25 65 42 90 101 101 231 12 161 -7 212 -90
237 -30 9 -241 13 -805 14 -715 2 -766 1 -781 -15z m781 -104 c30 -29 37 -51
21 -64 -22 -18 -55 14 -55 52 0 32 11 36 34 12z m632 -81 c33 -27 46 -63 23
-63 -6 0 -20 11 -31 25 -11 14 -30 25 -42 25 -29 0 -39 10 -25 27 17 20 36 16
75 -14z m-557 8 c17 -11 5 -51 -15 -51 -9 0 -14 11 -14 30 0 31 6 36 29 21z
m-669 -15 c0 -18 -19 -54 -51 -94 -28 -36 -44 -35 -72 3 l-18 25 39 0 c36 0
40 2 52 40 9 27 19 40 32 40 10 0 18 -6 18 -14z m778 -131 c13 -28 16 -74 6
-99 -5 -13 -8 -13 -20 -1 -8 7 -14 20 -14 27 0 7 -7 23 -15 34 -12 18 -12 24
1 42 20 28 28 28 42 -3z m569 -91 c-3 -3 -12 -4 -19 -1 -8 3 -5 6 6 6 11 1 17
-2 13 -5z m-1067 -88 c0 -19 -4 -38 -10 -41 -6 -4 -10 10 -10 34 0 23 5 41 10
41 6 0 10 -15 10 -34z m740 -859 c23 -18 23 -48 0 -92 -11 -21 -20 -54 -20
-72 0 -33 -14 -51 -25 -32 -5 7 -15 3 -29 -10 -12 -12 -26 -18 -29 -14 -11 10
-8 43 3 43 6 0 10 6 10 14 0 16 -34 31 -49 22 -17 -11 -41 25 -41 60 0 52 15
74 53 75 18 1 43 5 57 9 36 12 53 11 70 -3z m-1086 -46 c9 -14 -22 -34 -40
-27 -13 5 -14 9 -4 21 14 17 36 20 44 6z m356 5 c0 -5 -28 -67 -39 -86 -5 -8
-16 -40 -26 -71 -16 -52 -21 -58 -57 -70 -39 -12 -42 -12 -60 11 -12 15 -18
33 -15 50 3 14 -2 37 -11 53 -15 24 -15 29 -2 38 8 5 24 7 34 5 13 -3 30 6 51
29 24 24 43 35 71 38 22 2 42 4 47 5 4 1 7 0 7 -2z m488 -28 c2 -9 -18 -36
-44 -61 -46 -45 -47 -46 -49 -114 -3 -83 -2 -82 -20 -60 -7 11 -11 25 -8 33 3
8 0 14 -6 14 -6 0 -11 5 -11 11 0 7 -11 22 -25 35 -30 28 -24 54 24 102 17 17
31 37 31 46 0 29 102 24 108 -6z m-348 -38 c0 -11 -4 -20 -9 -20 -11 0 -22 26
-14 34 12 12 23 5 23 -14z m398 -192 c-6 -18 -28 -21 -28 -4 0 9 7 16 16 16 9
0 14 -5 12 -12z m-608 -428 c0 -5 -4 -10 -10 -10 -5 0 -10 5 -10 10 0 6 5 10
10 10 6 0 10 -4 10 -10z m-10 -126 c-12 -30 -59 -51 -72 -32 -11 18 -10 24 7
38 8 7 15 18 15 26 0 7 9 18 20 24 11 6 20 21 21 33 1 12 5 3 10 -21 5 -25 4
-53 -1 -68z m-209 -176 c0 -7 3 -24 5 -38 7 -39 -4 -70 -31 -82 -19 -8 -27 -7
-39 5 -9 9 -16 21 -16 28 0 23 35 88 50 92 26 8 30 7 31 -5z m179 -302 c0 -17
-22 -26 -63 -26 l-32 1 24 19 c27 23 71 27 71 6z m1181 -202 c10 -28 4 -63
-12 -65 -5 -1 -15 -2 -21 -3 -37 -6 -54 64 -20 83 28 17 42 13 53 -15z m-906
-34 c4 -6 -3 -26 -14 -44 -34 -55 -73 -59 -67 -8 2 15 4 35 5 45 1 13 10 17
35 17 19 0 38 -5 41 -10z m828 -39 c3 -14 0 -17 -14 -14 -22 6 -26 33 -5 33 7
0 16 -8 19 -19z"/>
<path d="M11677 13353 c-4 -3 -7 -15 -7 -27 0 -20 0 -20 15 0 8 10 15 22 15
27 0 9 -14 9 -23 0z"/>
<path d="M10377 13304 c-10 -10 -9 -52 2 -58 12 -8 24 45 13 56 -4 4 -11 5
-15 2z"/>
<path d="M10340 13248 c0 -19 2 -20 10 -8 13 19 13 30 0 30 -5 0 -10 -10 -10
-22z"/>
<path d="M10506 12854 c-4 -9 -4 -19 -2 -21 8 -8 26 8 26 23 0 19 -16 18 -24
-2z"/>
<path d="M12310 12823 c0 -35 1 -36 15 -17 19 25 19 40 0 48 -12 4 -15 -3 -15
-31z"/>
<path d="M8212 12807 c-8 -9 -4 -15 14 -24 20 -9 26 -9 30 2 12 30 -23 48 -44
22z"/>
<path d="M8151 12784 c0 -11 3 -14 6 -6 3 7 2 16 -1 19 -3 4 -6 -2 -5 -13z"/>
<path d="M10626 12762 c-3 -6 -1 -14 5 -17 15 -10 25 3 12 16 -7 7 -13 7 -17
1z"/>
<path d="M8150 12671 c0 -12 6 -21 16 -21 9 0 14 7 12 17 -5 25 -28 28 -28 4z"/>
<path d="M8340 12641 c-13 -33 -7 -53 15 -44 16 6 22 73 6 73 -5 0 -14 -13
-21 -29z"/>
<path d="M10562 12659 c2 -6 8 -10 13 -10 5 0 11 4 13 10 2 6 -4 11 -13 11 -9
0 -15 -5 -13 -11z"/>
<path d="M8150 12480 c0 -33 13 -38 37 -15 19 20 10 45 -17 45 -16 0 -20 -7
-20 -30z"/>
<path d="M8270 12473 c1 -36 2 -37 15 -19 19 26 19 56 0 56 -11 0 -15 -11 -15
-37z"/>
<path d="M13454 12417 c-8 -21 1 -47 16 -47 19 0 23 31 7 48 -15 14 -17 14
-23 -1z"/>
<path d="M10190 12355 c-12 -15 -17 -61 -8 -71 19 -18 68 51 53 75 -9 16 -30
13 -45 -4z"/>
<path d="M10447 12297 c-13 -9 -18 -23 -15 -47 2 -29 7 -35 30 -38 31 -4 51
24 46 66 -3 31 -33 40 -61 19z"/>
<path d="M10183 12076 c-22 -48 -10 -90 29 -94 53 -6 56 74 5 116 -14 12 -19
9 -34 -22z"/>
<path d="M10450 12050 c-9 -16 -8 -22 5 -26 21 -9 37 8 29 29 -8 23 -21 21
-34 -3z"/>
<path d="M10427 11913 c-4 -3 -7 -24 -7 -45 0 -31 4 -38 19 -38 25 0 35 31 20
64 -12 26 -20 31 -32 19z"/>
<path d="M10320 11860 c-6 -12 -9 -24 -6 -28 3 -3 6 0 6 6 0 7 12 12 26 12 16
0 24 5 22 13 -8 21 -36 19 -48 -3z"/>
<path d="M10553 11853 c-7 -2 -13 -10 -13 -17 0 -6 -9 -29 -20 -51 -23 -45
-26 -81 -7 -88 23 -7 47 5 48 27 5 75 9 91 23 101 12 9 13 14 4 23 -13 13 -16
13 -35 5z"/>
<path d="M10367 11776 c-4 -10 -5 -21 -2 -24 9 -9 17 6 13 25 -3 17 -4 17 -11
-1z"/>
<path d="M8482 11722 l-22 -19 27 -12 c28 -13 30 -13 33 9 6 44 -5 50 -38 22z"/>
<path d="M8145 11711 c-3 -5 -1 -12 5 -16 5 -3 10 1 10 9 0 18 -6 21 -15 7z"/>
<path d="M10474 11682 c-16 -10 -36 -51 -29 -61 10 -17 45 1 51 26 7 27 -5 46
-22 35z"/>
<path d="M10391 10967 c-13 -16 -5 -27 21 -27 11 0 18 7 18 20 0 23 -22 27
-39 7z"/>
<path d="M10447 10876 c-7 -16 1 -26 20 -26 7 0 13 9 13 20 0 23 -25 27 -33 6z"/>
<path d="M10370 10865 c0 -5 5 -17 10 -25 5 -8 10 -10 10 -5 0 6 -5 17 -10 25
-5 8 -10 11 -10 5z"/>
<path d="M8219 10749 c-10 -6 -10 -11 1 -24 14 -17 61 -17 67 0 4 14 -52 34
-68 24z"/>
<path d="M10400 10673 c0 -25 13 -36 52 -40 31 -3 36 12 14 42 -12 17 -16 17
-31 5 -14 -12 -18 -12 -26 1 -7 11 -9 9 -9 -8z"/>
<path d="M9006 10533 c-16 -35 -33 -63 -38 -63 -4 0 -8 -7 -8 -15 0 -12 13
-15 60 -15 33 0 60 4 60 10 0 6 -15 10 -32 10 -22 0 -28 3 -20 9 9 5 12 26 10
67 l-3 59 -29 -62z"/>
<path d="M9460 10580 c-8 -5 -15 -27 -17 -51 -3 -41 -3 -41 20 -27 15 10 23
27 25 52 3 37 -2 42 -28 26z"/>
<path d="M8130 10552 c0 -35 37 -91 61 -92 4 0 9 11 11 25 6 28 -14 50 -37 41
-11 -4 -15 2 -15 24 0 17 -4 30 -10 30 -5 0 -10 -12 -10 -28z"/>
<path d="M8270 10525 c-11 -14 -11 -20 -1 -37 11 -17 10 -22 -1 -29 -9 -6 -6
-9 10 -9 15 0 21 4 16 12 -4 6 1 17 10 24 21 15 18 47 -5 52 -9 1 -22 -4 -29
-13z"/>
<path d="M10800 10495 c0 -8 5 -15 10 -15 6 0 10 7 10 15 0 8 -4 15 -10 15 -5
0 -10 -7 -10 -15z"/>
<path d="M11356 10482 c-7 -12 6 -25 51 -49 52 -28 53 -28 53 1 0 19 -7 26
-30 31 -16 4 -32 11 -35 16 -7 11 -32 12 -39 1z"/>
<path d="M3055 9969 c-107 -7 -166 -15 -206 -29 -31 -11 -65 -20 -77 -20 -11
0 -34 -12 -51 -26 -26 -21 -31 -33 -31 -67 0 -60 -37 -280 -59 -357 -33 -112
-44 -180 -50 -330 -5 -104 -11 -153 -23 -175 -8 -16 -19 -54 -23 -84 -4 -30
-14 -69 -21 -87 -8 -18 -14 -60 -14 -91 0 -32 -7 -83 -15 -113 -9 -30 -20 -89
-24 -130 -4 -41 -15 -89 -24 -107 -10 -18 -17 -49 -17 -70 -1 -21 -7 -67 -15
-103 -8 -36 -14 -99 -15 -140 0 -42 -7 -100 -16 -130 -8 -30 -20 -80 -25 -110
-6 -30 -17 -80 -24 -110 -8 -30 -17 -98 -20 -150 -3 -52 -12 -120 -20 -150 -8
-30 -15 -68 -15 -85 0 -16 -9 -57 -20 -90 -48 -149 -60 -219 -60 -360 l0 -138
39 -36 c64 -59 115 -71 298 -71 201 0 217 5 249 77 14 33 24 74 24 102 0 26 7
71 16 101 8 30 19 82 25 114 5 33 16 82 24 109 8 28 15 76 15 108 0 31 7 93
15 136 9 43 18 122 22 175 6 92 7 97 35 118 28 21 42 22 288 25 234 4 261 2
280 -13 19 -16 22 -32 30 -157 4 -77 13 -153 19 -168 6 -16 11 -46 11 -67 0
-22 9 -63 19 -92 11 -29 22 -78 26 -108 3 -30 13 -83 22 -117 17 -68 11 -89
-29 -95 -35 -5 -32 -26 4 -30 28 -3 33 -8 39 -36 9 -46 49 -85 123 -120 97
-47 162 -62 272 -62 128 0 163 15 182 80 24 80 -20 391 -68 480 -6 11 -15 86
-20 167 -5 82 -16 182 -24 223 -14 76 -50 186 -67 206 -5 6 -13 87 -18 180 -8
160 -19 224 -59 354 -9 30 -19 105 -23 165 -6 112 -29 228 -55 277 -8 15 -17
51 -20 80 -3 29 -10 63 -16 75 -14 29 -5 51 24 55 12 2 24 11 26 20 2 12 -5
17 -29 20 -31 3 -33 6 -44 58 -6 30 -16 65 -23 77 -7 12 -12 30 -12 40 -1 10
-9 36 -20 58 -11 23 -19 62 -20 90 0 28 -6 75 -14 105 -8 30 -17 82 -21 115
-5 33 -16 76 -26 95 -11 19 -19 48 -19 65 0 33 -31 150 -49 183 -13 24 -116
75 -183 91 -53 12 -181 12 -403 0z m183 -791 c14 -17 21 -60 37 -214 7 -71 23
-160 34 -199 31 -103 39 -150 40 -248 1 -55 9 -110 22 -149 27 -85 25 -133 -6
-164 -24 -24 -27 -25 -147 -19 -176 7 -193 23 -158 146 11 41 20 96 20 124 1
27 7 86 15 130 8 44 15 100 15 125 0 25 7 72 15 104 9 33 18 93 21 135 6 92
23 200 36 224 10 20 41 23 56 5z"/>
<path d="M7450 9965 c-168 -14 -274 -42 -313 -83 -33 -35 -67 -141 -67 -213 0
-61 -7 -69 -56 -69 -22 0 -25 -4 -22 -27 2 -22 9 -29 33 -33 37 -6 43 -38 21
-105 -9 -25 -16 -72 -16 -103 0 -32 -5 -63 -12 -70 -12 -12 -44 -223 -56 -372
-4 -49 -15 -99 -25 -117 -9 -18 -17 -41 -17 -51 0 -10 -9 -45 -20 -77 -11 -32
-20 -68 -20 -79 0 -32 -14 -47 -46 -49 -28 -2 -29 -4 -32 -63 -3 -55 -1 -61
22 -73 24 -13 24 -16 19 -105 -3 -50 -11 -116 -19 -147 -8 -31 -14 -74 -14
-94 0 -32 2 -36 15 -25 13 11 15 7 15 -23 0 -24 -6 -40 -19 -49 -36 -25 -51
-73 -51 -158 0 -58 -5 -93 -19 -123 -11 -23 -23 -60 -27 -82 -4 -22 -14 -55
-21 -74 -8 -19 -15 -59 -15 -90 -1 -83 -4 -91 -44 -91 -19 0 -34 -4 -34 -10 0
-5 16 -10 36 -10 l36 0 -7 -82 c-4 -45 -11 -95 -16 -112 -5 -17 -9 -47 -9 -67
0 -21 -8 -47 -20 -62 -11 -14 -20 -40 -20 -60 0 -39 -21 -67 -49 -67 -34 0
-46 29 -46 114 0 65 -3 81 -15 81 -11 0 -16 -15 -18 -65 -2 -35 -9 -71 -16
-80 -19 -21 -28 -82 -15 -100 8 -13 12 -12 26 8 17 24 61 30 81 10 7 -7 12
-24 12 -38 0 -16 13 -39 34 -61 89 -90 137 -106 339 -111 133 -3 144 -1 179
20 81 50 113 154 127 407 8 141 18 204 58 350 9 33 19 112 22 175 l6 115 220
7 c285 10 313 10 355 6 34 -4 35 -5 36 -48 2 -62 26 -151 39 -147 5 2 9 13 7
23 -2 16 -1 17 7 4 9 -13 11 -12 11 3 0 10 -4 27 -10 37 -7 13 -4 36 10 81 20
64 46 90 89 89 32 -1 61 -37 61 -75 0 -49 35 -115 60 -115 11 0 20 5 20 11 0
15 39 69 51 69 5 0 9 -7 9 -15 0 -8 5 -15 11 -15 12 0 3 -76 -16 -131 -9 -26
-10 -41 -2 -55 15 -27 49 -53 70 -54 22 0 23 -37 1 -68 -31 -45 -85 -60 -165
-46 -33 5 -36 9 -37 41 -2 56 -12 75 -58 119 -39 35 -44 45 -42 77 2 20 6 37
11 37 4 0 7 7 7 15 0 8 5 15 11 15 7 0 8 7 4 18 -4 9 -7 25 -7 35 1 14 -3 15
-18 7 -25 -14 -43 -47 -36 -67 4 -10 -2 -21 -14 -30 -11 -8 -20 -20 -20 -28 0
-7 -5 -15 -12 -17 -10 -4 -10 -16 0 -57 7 -29 12 -75 12 -102 0 -28 7 -73 17
-101 15 -49 15 -52 -2 -64 -10 -8 -25 -14 -32 -14 -8 0 -13 -12 -13 -28 0 -21
7 -30 31 -41 16 -7 33 -11 35 -8 9 9 84 -74 90 -99 6 -22 74 -84 74 -67 0 4 7
-3 16 -15 19 -28 12 -40 -31 -48 -25 -4 -43 -1 -60 10 -24 16 -26 16 -34 -6
-14 -37 51 -138 88 -138 9 0 52 -14 96 -31 101 -38 252 -51 302 -26 77 40 94
102 62 227 -12 49 -24 137 -28 210 -4 69 -15 148 -24 175 -43 135 -57 207 -57
298 0 56 -6 111 -15 138 -8 24 -19 71 -24 104 -10 62 -29 140 -58 235 -9 32
-19 114 -23 195 -4 77 -11 151 -17 165 -6 14 -14 47 -18 75 -4 27 -13 62 -21
77 -8 16 -17 72 -20 126 -4 55 -12 107 -20 119 -8 12 -14 35 -14 50 0 15 -9
48 -20 72 -11 24 -20 53 -20 65 0 11 -8 41 -16 66 -9 25 -20 88 -24 140 -7 92
-25 162 -58 225 -9 17 -19 73 -23 125 -10 134 -54 291 -103 366 -20 32 -96 73
-172 93 -52 14 -225 12 -414 -4z m473 -365 c-6 -31 -7 -32 -14 -11 -6 14 -4
27 4 36 16 18 18 14 10 -25z m-29 -25 c-4 -8 -10 -12 -15 -9 -14 8 -10 24 6
24 9 0 12 -6 9 -15z m-264 -20 c15 -18 6 -45 -15 -45 -10 0 -15 10 -15 30 0
33 11 38 30 15z m281 -268 c-16 -16 -26 0 -10 19 9 11 15 12 17 4 2 -6 -1 -17
-7 -23z m-8 -23 c8 -9 -14 -65 -35 -86 -10 -10 -18 -24 -18 -30 0 -7 -5 -5
-11 5 -14 23 -3 51 16 43 11 -4 16 5 21 34 6 38 13 47 27 34z m-712 -152 c-6
-2 -18 -17 -26 -33 -16 -30 -45 -40 -45 -14 0 8 4 15 9 15 5 0 11 12 13 27 2
17 12 32 28 40 23 11 25 10 28 -9 2 -12 -1 -24 -7 -26z m191 23 c12 -14 30
-25 40 -25 11 0 18 -7 18 -20 0 -17 -7 -20 -40 -20 -22 0 -40 -5 -40 -11 0
-17 -43 -48 -67 -49 -29 0 -55 40 -51 77 2 20 14 33 43 50 51 29 70 29 97 -2z
m248 15 c10 -5 22 -24 25 -42 4 -18 11 -38 17 -45 5 -6 13 -39 19 -73 5 -34
16 -81 24 -103 8 -23 15 -58 15 -77 1 -38 15 -108 24 -117 12 -12 108 -2 123
12 19 20 33 19 49 -2 24 -32 17 -53 -16 -53 -16 0 -30 -4 -30 -8 0 -16 -41
-52 -60 -52 -13 0 -20 8 -22 28 -2 16 -9 27 -18 27 -11 0 -16 -13 -18 -47 -2
-29 1 -48 7 -48 6 0 11 -18 11 -39 0 -34 5 -42 35 -61 37 -23 55 -20 55 10 0
10 8 26 17 35 15 16 18 16 28 1 15 -20 32 -20 43 0 8 14 12 14 31 3 20 -12 24
-12 37 5 8 11 14 25 14 32 0 16 32 27 40 14 4 -7 18 -8 33 -5 15 4 35 4 44 -1
10 -4 22 -8 28 -8 16 -2 18 -35 4 -68 -13 -33 -47 -51 -66 -36 -16 13 -51 1
-63 -23 -6 -10 -17 -19 -24 -19 -7 0 -19 -11 -26 -25 -7 -13 -21 -27 -31 -30
-22 -7 -30 -29 -20 -56 7 -22 8 -21 28 4 l20 26 26 -31 c23 -26 32 -29 61 -24
45 9 66 -1 66 -30 0 -18 7 -24 34 -30 19 -3 39 -3 45 1 7 4 11 -4 11 -19 0
-30 -20 -43 -75 -47 -35 -4 -41 -1 -53 23 -7 16 -22 32 -32 38 -17 9 -20 6
-26 -17 -6 -24 -21 -42 -81 -93 -21 -17 -54 -11 -74 15 -13 15 -26 22 -36 18
-14 -5 -15 1 -11 49 4 45 10 61 32 81 20 19 26 32 21 46 -3 12 -10 21 -15 21
-5 0 -12 9 -15 20 -4 14 4 33 29 64 56 68 42 107 -17 47 -20 -20 -27 -37 -25
-59 1 -16 -4 -37 -11 -46 -7 -8 -9 -21 -5 -27 4 -7 1 -17 -7 -23 -8 -6 -20
-30 -27 -52 -7 -23 -18 -47 -26 -53 -9 -8 -57 -9 -161 -4 -191 8 -191 8 -181
137 6 81 35 238 65 351 16 62 32 228 34 358 2 92 5 120 17 127 19 12 37 12 60
0z m-575 -71 c7 -10 -30 -49 -47 -49 -15 0 -8 39 10 49 22 13 29 13 37 0z
m316 -112 c-7 -7 -15 -6 -26 3 -12 10 -13 15 -3 21 17 11 42 -11 29 -24z m-37
-101 c-3 -7 -18 -20 -35 -30 l-31 -18 7 23 c4 13 12 26 16 27 5 2 9 13 9 24 0
20 1 20 19 4 11 -10 18 -23 15 -30z m671 -70 c12 -12 11 -16 -5 -31 -30 -27
-57 4 -28 33 15 15 16 15 33 -2z m-1025 -120 c0 -3 -4 -8 -10 -11 -5 -3 -10
-1 -10 4 0 6 5 11 10 11 6 0 10 -2 10 -4z m1150 -95 c0 -6 -4 -13 -10 -16 -5
-3 -10 1 -10 9 0 9 5 16 10 16 6 0 10 -4 10 -9z m23 -237 c-7 -3 -9 -12 -6
-20 3 -8 -1 -14 -11 -14 -18 0 -19 2 -10 24 3 9 14 16 23 15 9 0 11 -3 4 -5z
m60 -40 c-4 -12 -8 -13 -14 -3 -9 15 -2 32 11 24 5 -3 6 -13 3 -21z m-1187
-85 c7 -11 -22 -47 -30 -38 -8 7 5 49 15 49 4 0 11 -5 15 -11z m260 -115 c-3
-8 -10 -13 -16 -9 -6 3 -5 16 3 32 9 21 13 23 15 9 2 -9 1 -24 -2 -32z m514 8
c0 -21 -18 -42 -37 -42 -18 0 -16 25 3 44 21 21 34 20 34 -2z m-80 -36 c0 -7
-9 -16 -20 -19 -11 -3 -20 -1 -20 4 0 5 7 9 15 9 8 0 15 5 15 10 0 6 2 10 5
10 3 0 5 -6 5 -14z m-772 -32 c-4 -33 -32 -54 -49 -37 -9 9 -8 18 5 37 22 35
48 34 44 0z m1235 10 c32 13 37 13 48 -1 11 -12 10 -21 -4 -45 -9 -16 -17 -36
-17 -44 0 -8 -15 -30 -34 -50 -29 -31 -35 -44 -34 -83 1 -75 -1 -81 -22 -81
-12 0 -17 5 -14 14 6 17 -21 86 -34 86 -5 0 -24 3 -42 7 l-33 6 7 -39 7 -39
-28 28 c-22 22 -26 31 -17 45 6 9 17 17 25 17 22 0 38 36 32 73 -5 30 -1 37
43 77 44 38 51 41 65 28 15 -12 21 -12 52 1z m-897 -19 c17 -16 87 -11 112 8
22 17 14 -25 -10 -50 -16 -17 -32 -23 -65 -23 -41 0 -48 5 -44 37 1 6 -3 14
-9 18 -11 7 -14 25 -4 25 3 0 12 -7 20 -15z m714 -51 c0 -27 -44 -79 -59 -70
-7 5 -6 18 4 39 7 18 16 40 19 49 8 25 36 11 36 -18z m-500 -54 c0 -11 -4 -20
-10 -20 -5 0 -10 9 -10 20 0 11 5 20 10 20 6 0 10 -9 10 -20z m292 -62 c-12
-46 -46 -2 -36 48 l7 37 17 -33 c10 -18 15 -42 12 -52z m94 -16 c-4 -11 -16
-22 -26 -25 -24 -6 -24 -4 -4 35 17 33 41 26 30 -10z m344 -56 c0 -3 -4 -8
-10 -11 -5 -3 -10 -1 -10 4 0 6 5 11 10 11 6 0 10 -2 10 -4z m176 -623 c15
-20 18 -33 7 -33 -5 0 -13 11 -20 25 -13 29 -6 33 13 8z m-82 -380 c10 -25 -5
-83 -20 -83 -8 0 -14 -4 -14 -10 0 -5 -7 -10 -17 -10 -9 0 -13 3 -10 6 3 4 1
16 -4 27 -11 19 -2 48 24 84 10 15 33 7 41 -14z"/>
<path d="M7321 9101 c-8 -6 -11 -16 -7 -27 6 -16 8 -16 23 -1 20 19 6 41 -16
28z"/>
<path d="M13642 9965 c-41 -7 -81 -20 -90 -28 -9 -8 -27 -18 -38 -21 -12 -4
-28 -14 -37 -24 -32 -36 -35 -86 -26 -384 5 -161 9 -471 9 -689 0 -218 3 -399
7 -402 3 -4 16 6 27 22 18 23 23 26 34 15 10 -11 8 -22 -9 -58 -11 -25 -19
-53 -17 -63 4 -24 58 -32 58 -9 0 22 38 58 53 49 6 -4 24 -6 39 -5 31 3 39 -6
31 -37 -5 -18 -10 -21 -33 -16 -40 9 -70 -26 -70 -80 0 -34 -5 -45 -30 -63
-22 -17 -30 -19 -30 -9 0 8 -6 20 -14 26 -8 7 -18 27 -22 44 -7 29 -9 27 -15
-28 -8 -62 -14 -577 -14 -1133 l0 -322 30 -25 c76 -63 189 -98 360 -110 103
-8 162 15 192 76 l24 45 -1 770 c-1 431 -5 791 -11 819 -24 129 -24 124 5 135
44 16 91 12 111 -10 15 -17 17 -26 7 -58 -6 -20 -13 -74 -17 -119 -6 -71 -5
-83 8 -83 10 0 17 11 19 32 2 25 9 35 30 42 24 9 32 5 63 -27 20 -20 46 -39
58 -42 41 -8 342 -12 364 -4 12 4 40 30 61 58 30 37 42 65 50 109 12 67 60
172 100 219 51 60 154 60 138 0 -3 -13 3 -26 18 -38 21 -17 23 -26 25 -161 2
-79 2 -152 1 -163 -1 -11 -3 -345 -5 -743 -2 -398 -6 -738 -9 -755 -6 -30 -3
-34 36 -54 82 -42 140 -53 270 -52 152 1 184 11 215 68 l22 42 -4 1102 c-3
651 -9 1159 -15 1242 -6 77 -15 210 -20 295 -5 85 -13 187 -19 225 -5 39 -13
114 -16 168 -6 91 -9 101 -37 133 -17 19 -37 34 -45 34 -9 0 -30 9 -47 19 -53
33 -171 47 -258 31 -68 -12 -76 -16 -124 -66 -38 -39 -57 -71 -77 -126 -15
-40 -27 -85 -27 -100 0 -15 -4 -29 -9 -32 -4 -3 -23 -36 -41 -73 -18 -37 -38
-81 -46 -96 -8 -16 -14 -39 -14 -51 0 -12 -11 -37 -25 -56 -14 -19 -25 -39
-25 -46 0 -6 -6 -17 -14 -23 -8 -6 -16 -43 -20 -88 -5 -52 -13 -84 -27 -101
-10 -14 -19 -35 -19 -48 0 -13 -7 -27 -16 -32 -11 -6 -18 -26 -20 -58 -2 -27
-10 -53 -17 -59 -8 -5 -17 -23 -21 -39 -4 -17 -20 -43 -36 -59 -26 -27 -34
-29 -79 -25 -74 7 -81 17 -81 108 0 58 -4 81 -16 91 -33 27 -57 93 -62 169 -3
51 -11 83 -23 102 -11 14 -19 33 -19 41 0 8 -9 26 -20 40 -11 14 -20 37 -20
51 0 14 -9 43 -20 63 -11 21 -20 45 -20 53 0 8 -9 29 -20 45 -11 17 -20 39
-20 50 0 21 -34 107 -63 162 -46 87 -105 152 -137 153 -9 0 -26 7 -39 17 -22
15 -161 43 -206 42 -11 0 -53 -7 -93 -14z m155 -376 c16 -16 5 -39 -23 -49
-35 -14 -54 -2 -54 31 0 26 3 29 33 29 18 0 38 -5 44 -11z m-159 -267 c-2 -28
-7 -37 -20 -36 -10 1 -18 -3 -18 -10 0 -6 -5 -3 -11 7 -5 9 -17 17 -24 17 -23
0 -18 21 11 52 22 22 31 25 46 17 15 -8 18 -19 16 -47z m42 -199 c-11 -17 -11
-17 -6 0 3 10 6 24 7 30 0 9 2 9 5 0 3 -7 0 -20 -6 -30z m-24 -110 c-10 -10
-19 5 -10 18 6 11 8 11 12 0 2 -7 1 -15 -2 -18z m-11 -73 c-3 -5 -15 -10 -26
-10 -10 0 -19 5 -19 10 0 6 12 10 26 10 14 0 23 -4 19 -10z m145 -185 c0 -9
-6 -12 -15 -9 -8 4 -15 10 -15 15 0 5 7 9 15 9 8 0 15 -7 15 -15z m11 -118
c-6 -6 -11 -34 -11 -61 0 -74 -27 -107 -34 -42 -1 14 -6 29 -9 33 -15 14 -6
43 18 59 13 9 28 26 32 37 6 20 7 20 11 3 2 -10 -1 -23 -7 -29z m519 -176 c0
-32 -17 -50 -54 -57 -23 -4 -26 -1 -26 23 0 20 8 33 28 45 40 24 52 22 52 -11z
m-568 -295 c4 -19 1 -22 -18 -18 -27 5 -48 44 -31 61 14 14 43 -11 49 -43z
m-92 -16 c0 -17 -3 -19 -19 -8 -21 13 -19 28 5 28 8 0 14 -9 14 -20z m-80 -94
c0 -32 -14 -40 -42 -25 l-22 12 23 18 c31 25 41 24 41 -5z m181 -1008 c2 -24
-3 -42 -16 -53 -6 -5 -18 -31 -24 -56 -7 -25 -24 -58 -37 -72 -13 -14 -24 -32
-24 -39 0 -8 -13 -15 -30 -16 -17 -1 -45 -11 -63 -22 -17 -11 -37 -20 -42 -20
-6 0 -12 28 -13 64 -3 61 -1 66 30 95 18 17 38 45 44 63 10 30 16 34 60 39 27
4 60 12 74 17 34 14 40 14 41 0z m-71 -349 c-7 -16 -16 -29 -21 -29 -13 0 -11
47 2 72 11 20 12 20 21 4 7 -12 6 -27 -2 -47z"/>
<path d="M16040 9966 c-89 -15 -144 -47 -160 -94 -11 -29 -8 -39 25 -100 21
-37 43 -71 51 -75 9 -5 14 -26 14 -57 0 -39 4 -53 20 -62 11 -7 20 -24 20 -38
0 -14 9 -31 20 -38 13 -8 20 -23 20 -42 0 -17 5 -31 10 -31 6 -1 15 -3 20 -4
6 -1 16 -3 23 -4 7 0 27 -27 45 -58 43 -77 50 -89 92 -153 19 -30 48 -81 64
-112 15 -31 34 -62 42 -69 8 -6 14 -19 14 -29 0 -9 9 -29 20 -43 11 -14 20
-29 20 -35 0 -5 15 -29 34 -53 18 -24 37 -55 41 -69 4 -14 16 -33 26 -43 11
-10 19 -26 19 -36 0 -10 9 -26 20 -36 11 -10 20 -28 20 -41 0 -13 6 -27 14
-31 7 -4 25 -31 39 -59 14 -27 33 -56 41 -63 9 -8 16 -24 16 -36 0 -12 7 -28
15 -35 8 -6 17 -22 21 -33 6 -19 16 -34 63 -93 4 -5 14 -28 21 -50 7 -21 17
-45 23 -52 6 -8 9 -261 8 -720 l-1 -709 30 -38 c44 -56 84 -79 175 -100 157
-37 250 -17 294 64 l24 44 -2 696 c-1 383 3 723 8 756 8 55 23 87 98 210 17
28 21 36 27 66 3 14 21 46 41 72 19 25 35 53 35 61 0 15 41 99 60 121 21 25
60 107 60 126 0 10 16 41 35 68 19 26 35 52 35 57 1 13 52 112 82 160 14 22
30 56 36 75 5 19 26 59 46 89 20 30 36 62 36 72 0 9 5 20 10 23 6 4 17 21 25
38 8 18 26 50 40 72 31 50 45 82 45 104 0 9 12 33 26 52 45 60 84 146 84 187
0 56 -55 100 -157 127 -138 36 -298 3 -378 -79 -34 -34 -75 -104 -75 -127 0
-11 -18 -51 -40 -89 -22 -38 -40 -75 -40 -83 0 -8 -6 -20 -14 -26 -8 -7 -18
-26 -22 -44 -3 -17 -19 -54 -35 -82 -16 -27 -34 -61 -39 -75 -14 -34 -15 -36
-58 -115 -21 -38 -43 -79 -48 -90 -6 -11 -19 -36 -29 -55 -10 -19 -32 -61 -48
-93 -28 -54 -32 -58 -61 -55 -30 3 -31 5 -34 56 -2 28 -7 52 -13 52 -5 0 -12
1 -16 3 -5 1 -10 -23 -13 -53 -4 -41 -9 -56 -22 -58 -22 -4 -58 32 -58 59 0
12 -16 43 -35 70 -19 27 -37 60 -41 74 -3 14 -10 28 -15 30 -4 3 -43 66 -86
140 -43 75 -94 163 -114 198 -20 34 -52 91 -70 127 -18 36 -41 74 -50 85 -10
11 -29 43 -43 71 -27 54 -86 114 -112 114 -8 0 -31 8 -52 19 -20 10 -75 24
-121 30 -96 13 -91 13 -191 -3z"/>
<path d="M5425 9960 c-38 -5 -92 -15 -120 -24 -27 -9 -70 -16 -95 -16 -48 0
-169 -38 -198 -62 -9 -8 -30 -20 -45 -28 -70 -35 -227 -189 -227 -222 0 -5 -5
-14 -10 -21 -6 -7 -31 -43 -55 -82 -31 -49 -45 -81 -45 -105 0 -20 -9 -53 -20
-75 -11 -22 -20 -54 -20 -73 0 -18 -6 -45 -14 -60 -8 -15 -17 -46 -21 -67 -13
-80 -15 -85 -50 -99 -41 -18 -46 -46 -12 -69 l23 -15 2 -656 c2 -620 3 -662
22 -758 12 -55 28 -110 35 -122 8 -11 15 -32 15 -46 0 -14 9 -51 20 -83 11
-31 20 -69 20 -83 0 -15 8 -36 17 -46 9 -10 17 -38 18 -62 2 -52 10 -66 35
-66 11 0 27 -12 37 -27 20 -32 63 -72 78 -73 6 0 22 -18 35 -40 15 -24 51 -57
90 -83 105 -69 98 -65 188 -103 18 -8 45 -14 60 -14 15 0 61 -11 102 -24 99
-32 236 -49 335 -43 175 11 323 29 384 48 35 11 93 19 131 19 53 0 74 5 101
23 60 40 88 135 89 298 0 97 -8 123 -51 170 l-39 42 -72 -6 c-40 -3 -96 -9
-124 -13 -50 -6 -52 -5 -65 22 -14 29 -16 29 -98 29 l-83 0 -12 -35 -11 -35
-127 -3 -127 -3 -7 28 c-10 49 -13 53 -37 53 -13 0 -32 9 -43 21 l-19 21 -17
-22 c-30 -38 -66 -24 -99 39 -16 30 -35 61 -41 69 -49 58 -74 1169 -35 1506 9
82 17 173 17 202 0 48 19 109 51 164 5 8 14 26 19 40 25 64 48 74 85 40 31
-29 44 -19 38 30 -10 73 -8 74 232 67 206 -7 260 -14 417 -58 40 -11 54 -11
85 0 54 19 101 68 117 121 8 25 30 77 50 115 26 51 36 83 36 118 0 43 -4 52
-37 83 -21 19 -46 37 -55 40 -10 3 -18 9 -18 14 0 5 -15 13 -32 19 -18 5 -51
17 -73 25 -22 8 -65 15 -95 16 -30 0 -82 9 -115 19 -69 21 -399 34 -520 21z
m611 -267 c-10 -10 -19 5 -10 18 6 11 8 11 12 0 2 -7 1 -15 -2 -18z m-66 -27
c0 -3 -4 -8 -10 -11 -5 -3 -10 -1 -10 4 0 6 5 11 10 11 6 0 10 -2 10 -4z"/>
<path d="M9625 9956 c-77 -7 -153 -18 -169 -25 -18 -7 -107 -14 -230 -18 -170
-4 -207 -8 -238 -24 -43 -22 -56 -55 -40 -97 10 -25 28 -497 24 -617 -3 -78 7
-135 24 -135 19 0 18 -6 -8 -41 -22 -29 -23 -38 -20 -207 5 -301 7 -346 22
-384 8 -21 17 -38 20 -38 13 0 75 85 80 110 4 21 11 25 47 28 33 2 44 -1 52
-17 7 -13 8 -22 1 -26 -5 -3 -10 -17 -10 -31 0 -21 5 -24 34 -24 28 0 40 7 60
33 27 35 33 57 16 57 -5 0 -10 7 -10 15 0 8 -7 15 -16 15 -12 0 -15 6 -10 23
4 12 10 37 13 56 4 23 15 39 34 50 40 22 40 66 2 76 -44 11 -54 24 -47 62 7
39 -12 67 -51 77 -38 10 -48 38 -31 87 10 29 12 48 5 60 -7 14 -3 25 21 49 30
31 38 63 20 90 -8 13 -12 12 -24 -6 -9 -12 -29 -24 -46 -27 -18 -4 -30 -13
-30 -22 0 -20 -39 -20 -47 1 -3 9 1 31 10 50 14 29 22 34 51 34 29 0 46 13 46
36 0 13 -61 1 -72 -14 -9 -12 -28 -18 -60 -19 -56 -2 -62 11 -14 31 27 11 36
23 47 60 8 29 23 53 39 63 14 9 39 32 56 51 25 29 35 34 56 29 15 -4 33 -14
42 -22 8 -8 19 -15 24 -15 13 0 22 -25 22 -60 0 -38 9 -60 25 -60 10 0 13 -19
11 -77 -1 -43 2 -88 7 -100 7 -15 5 -31 -7 -54 -9 -18 -14 -40 -11 -50 4 -12
-1 -20 -17 -25 -46 -14 -52 -54 -8 -54 35 0 65 -38 55 -69 -4 -13 1 -27 13
-39 15 -15 21 -40 27 -114 8 -109 -1 -184 -24 -207 -53 -54 -60 -99 -23 -169
24 -47 28 -111 12 -189 -9 -41 -16 -51 -41 -60 -17 -7 -33 -21 -36 -32 -3 -12
-11 -21 -17 -21 -13 0 -46 -35 -46 -49 0 -16 75 8 89 28 15 23 40 28 43 9 2
-23 5 -33 13 -51 4 -9 3 -30 -3 -45 -6 -15 -13 -38 -16 -52 -3 -14 -15 -41
-27 -60 -12 -19 -23 -54 -25 -78 -2 -24 -6 -47 -9 -53 -8 -12 -52 -12 -60 1
-3 6 -1 10 4 10 15 0 14 40 -1 41 -46 3 -61 8 -78 26 -10 12 -16 23 -13 26 3
4 2 31 -2 62 -4 38 -11 55 -21 55 -19 0 -18 36 1 44 35 13 9 66 -32 66 -20 0
-22 3 -12 27 13 35 -11 64 -35 43 -9 -7 -16 -19 -16 -26 0 -8 -9 -14 -20 -14
-11 0 -20 7 -20 15 0 8 7 15 16 15 8 0 22 7 31 16 13 12 13 20 4 40 -6 15 -17
23 -24 20 -6 -3 -19 -9 -28 -12 -14 -5 -18 -27 -24 -114 -8 -122 0 -197 19
-181 6 5 21 8 31 6 11 -2 25 -4 32 -4 20 -2 42 -31 36 -49 -3 -9 -22 -33 -42
-52 -59 -57 -73 -96 -87 -251 -7 -69 12 -85 48 -39 17 22 27 27 38 19 13 -8
12 -12 -5 -27 -11 -9 -34 -39 -52 -65 -25 -38 -33 -63 -38 -122 -4 -41 -5 -98
-1 -127 8 -75 9 -193 0 -265 -3 -33 -4 -72 0 -86 9 -37 58 -54 174 -62 l103
-8 -3 38 c-3 35 -28 64 -28 33 0 -13 -79 -48 -107 -48 -9 0 -11 23 -9 88 5
104 9 118 51 157 18 17 35 39 39 50 7 22 136 118 165 123 10 2 38 -8 62 -20
42 -23 44 -26 42 -67 -2 -37 -9 -49 -52 -92 -33 -33 -54 -63 -61 -90 -13 -49
-9 -62 24 -84 20 -14 28 -14 45 -3 17 11 23 10 38 -4 16 -16 16 -19 -1 -37
-10 -11 -28 -19 -39 -18 -32 3 -31 -21 2 -41 23 -14 60 -21 144 -26 104 -6
113 -5 129 14 21 26 25 26 59 -11 38 -41 82 -38 87 6 5 36 22 50 87 64 63 15
86 34 120 99 47 90 62 84 47 -19 -6 -41 -18 -79 -28 -90 -39 -43 -22 -84 26
-67 16 5 28 13 27 16 -4 15 43 82 58 82 19 0 37 -41 24 -55 -31 -32 11 -46 62
-20 16 9 46 17 67 20 20 2 55 11 77 19 22 8 48 15 57 16 10 0 23 9 30 20 7 11
22 20 33 20 11 0 28 9 38 20 9 11 25 20 36 20 50 0 271 240 271 295 0 18 14
49 49 110 17 28 30 62 30 76 1 31 16 46 51 51 34 4 41 51 11 68 -27 14 -28 62
-2 144 60 193 55 132 59 766 4 573 4 587 -18 685 -12 55 -31 124 -41 153 -10
30 -19 71 -19 93 0 61 -38 177 -84 254 -13 22 -34 60 -47 85 -22 43 -183 220
-200 220 -8 0 -67 37 -104 65 -10 8 -26 15 -35 15 -8 0 -24 6 -35 14 -12 7
-62 16 -120 19 -56 3 -114 11 -130 18 -39 16 -233 36 -355 36 -52 1 -158 -5
-235 -11z m495 -138 c30 -13 59 -29 63 -36 5 -7 17 -10 28 -7 12 4 37 -2 60
-14 30 -16 57 -21 105 -20 80 2 93 -8 75 -56 -20 -58 6 -72 61 -34 25 18 32
19 39 8 20 -32 -1 -81 -47 -109 -31 -20 -51 -61 -39 -80 9 -15 47 -12 66 6 16
14 19 14 38 -5 12 -12 21 -32 21 -45 0 -37 10 -56 31 -56 22 0 25 30 7 60 -9
15 -10 22 -1 31 17 17 35 0 29 -27 -5 -18 0 -30 19 -46 28 -25 32 -62 11 -105
-8 -15 -19 -40 -25 -55 -14 -37 -31 -36 -31 1 0 62 -27 86 -78 71 -22 -6 -31
-5 -29 2 1 6 -12 15 -29 19 -26 7 -33 16 -38 44 -7 36 -25 45 -45 21 -6 -7
-24 -16 -39 -19 -15 -3 -35 -9 -44 -12 -32 -13 1 54 38 78 53 35 61 91 22 147
-14 19 -20 22 -30 12 -19 -19 -38 -14 -48 13 -5 14 -14 25 -20 25 -10 0 -14
-13 -25 -82 -4 -29 -11 -38 -25 -38 -23 0 -30 11 -41 58 -5 22 -4 41 2 49 13
15 8 55 -8 61 -7 2 -13 -3 -13 -11 0 -8 -7 -17 -15 -21 -8 -3 -15 -18 -15 -33
0 -34 -13 -55 -31 -53 -30 5 -39 -1 -39 -22 0 -12 -7 -30 -16 -39 -16 -17 -15
-19 10 -29 15 -5 35 -10 45 -10 26 0 74 -39 133 -108 22 -24 29 -46 34 -99 4
-37 15 -87 26 -111 10 -24 18 -53 19 -65 0 -16 5 -12 18 18 18 40 18 40 32 17
10 -15 23 -22 45 -22 38 0 44 12 44 83 1 41 6 58 25 80 l25 28 30 -33 c25 -28
29 -41 30 -88 0 -93 -14 -118 -46 -85 -20 20 -63 1 -64 -27 0 -4 25 -22 56
-39 62 -35 69 -60 24 -88 -14 -9 -40 -25 -58 -36 -17 -11 -32 -23 -32 -26 0
-3 -9 -16 -20 -29 -11 -13 -20 -37 -20 -54 0 -37 -14 -64 -24 -47 -4 6 -12 9
-17 6 -12 -8 -12 -112 1 -120 6 -3 10 -1 10 4 0 6 5 10 12 8 13 -2 27 41 20
62 -4 11 -7 10 -13 -5 -7 -17 -8 -17 -8 4 -1 30 25 29 33 -2 8 -34 74 -96 101
-96 18 0 24 7 28 36 4 21 21 53 44 78 79 89 119 142 132 174 14 34 44 57 61
47 12 -8 29 -98 32 -173 2 -65 16 -89 43 -78 12 4 15 -3 17 -32 1 -20 1 -46 0
-57 -6 -64 -7 -73 -14 -69 -5 3 -8 0 -8 -5 0 -6 -10 -11 -23 -11 -15 0 -34
-13 -54 -37 -42 -53 -47 -81 -20 -104 12 -10 27 -18 33 -19 6 0 17 -13 24 -29
10 -26 9 -35 -12 -73 -12 -23 -41 -60 -63 -81 -109 -104 -125 -120 -125 -128
0 -5 10 -14 23 -20 12 -6 31 -23 42 -36 l20 -24 21 23 c12 13 31 50 42 82 l20
59 17 -26 c9 -15 24 -27 31 -27 16 0 18 -9 15 -62 -2 -31 2 -38 26 -50 27 -13
28 -17 25 -73 -1 -33 -9 -76 -16 -95 -31 -81 -39 -108 -46 -155 -5 -27 -11
-57 -14 -65 -3 -8 -10 -46 -15 -84 -11 -75 -23 -98 -43 -77 -7 6 -13 22 -14
34 -2 69 -4 75 -28 81 -19 5 -26 15 -31 46 -4 21 -5 54 -4 72 3 37 -7 62 -22
53 -5 -4 -9 -16 -9 -28 0 -13 -6 -31 -13 -42 -17 -26 -22 -111 -7 -120 7 -4
17 -2 23 4 38 38 36 -33 -3 -99 -16 -28 -30 -53 -30 -56 0 -3 -13 -19 -30 -36
-21 -20 -30 -39 -30 -62 0 -49 -21 -83 -62 -102 -55 -25 -77 -94 -30 -94 29 0
62 30 62 56 0 13 5 24 10 24 17 0 23 -29 10 -45 -11 -13 -9 -19 8 -36 18 -16
22 -31 22 -79 0 -51 -3 -60 -21 -65 -26 -9 -99 13 -116 34 -7 8 -13 25 -13 38
0 28 1 28 -51 -2 -40 -22 -89 -33 -89 -20 0 21 34 64 59 74 24 10 30 20 35 55
10 64 -19 125 -47 97 -17 -17 -37 -13 -37 7 -1 30 -26 52 -59 52 -17 0 -31 -4
-31 -10 0 -5 9 -10 19 -10 27 0 29 -8 22 -60 -4 -32 -11 -46 -24 -48 -30 -6
-49 18 -45 55 4 37 -12 43 -46 18 -16 -12 -66 -15 -276 -15 -272 0 -284 2
-310 50 -7 14 -10 283 -9 827 2 445 3 930 3 1079 1 303 1 301 71 324 36 12 53
39 33 52 -20 12 -24 10 -49 -21 -18 -23 -27 -27 -41 -20 -29 15 -21 55 18 99
20 22 39 40 43 40 4 0 25 -16 47 -36 29 -28 39 -44 39 -68 0 -25 5 -32 24 -34
12 -2 34 -1 47 2 23 6 24 10 24 89 0 45 4 88 9 96 5 7 4 25 -2 41 -8 22 -7 31
6 44 9 9 14 23 11 31 -8 19 12 52 36 58 15 4 21 0 24 -16 3 -12 8 -39 13 -59
l8 -37 40 19 c46 22 55 12 36 -42 -9 -25 -8 -35 5 -49 19 -21 4 -59 -24 -59
-22 0 -79 -58 -84 -84 -2 -15 5 -21 31 -27 38 -8 89 6 88 24 -1 51 5 68 28 79
13 6 22 14 20 18 -2 4 5 26 17 49 18 38 19 45 7 68 -8 15 -26 31 -41 37 -24 9
-28 16 -28 52 0 40 12 57 35 49 6 -2 35 -14 65 -27z m-765 -41 c16 -22 20 -58
8 -55 -5 0 -16 -3 -27 -7 -11 -5 -26 -4 -35 2 -16 10 -26 54 -18 78 8 18 55 7
72 -18z m367 -1 c13 -19 9 -42 -11 -60 -39 -35 -74 1 -63 62 4 20 9 22 36 16
17 -3 34 -12 38 -18z m-106 -6 c0 -11 -4 -20 -8 -20 -4 0 -8 -8 -8 -17 -1 -17
-1 -17 -11 -1 -7 12 -6 23 3 38 16 25 24 25 24 0z m-131 -40 c-3 -22 1 -33 15
-40 16 -9 20 -21 20 -66 0 -50 -4 -60 -40 -103 -23 -27 -40 -52 -39 -57 5 -31
-2 -34 -30 -15 -38 27 -122 46 -132 30 -9 -16 -55 -4 -63 17 -9 22 2 36 24 29
18 -6 29 13 47 85 6 26 18 40 43 52 19 10 44 28 55 42 21 24 71 55 92 56 7 0
10 -11 8 -30z m121 -57 c-11 -11 -19 6 -11 24 8 17 8 17 12 0 3 -10 2 -21 -1
-24z m-431 -39 c0 -21 -32 -31 -48 -15 -8 8 -6 15 9 26 24 18 39 14 39 -11z
m-79 -765 c15 -31 13 -79 -5 -79 -15 0 -34 59 -27 85 8 32 12 32 32 -6z m84
-238 c0 -22 -16 -36 -24 -22 -8 12 3 41 15 41 5 0 9 -9 9 -19z m220 -1396 c0
-33 -14 -38 -41 -17 -26 22 -21 36 15 38 21 2 26 -3 26 -21z m1267 -161 c1 -5
-4 -18 -12 -29 -14 -17 -17 -18 -31 -3 -14 14 -14 17 1 32 18 17 36 17 42 0z
m-797 -70 c0 -8 -2 -14 -4 -14 -2 0 -11 -3 -19 -6 -11 -4 -13 1 -10 20 5 26
33 26 33 0z m155 0 c0 -12 -8 -20 -22 -22 -13 -2 -23 1 -23 7 0 6 5 11 10 11
6 0 10 7 10 16 0 9 6 14 13 12 6 -3 12 -13 12 -24z m-265 -61 c0 -49 -2 -53
-23 -53 -38 0 -60 67 -37 110 9 17 14 18 35 8 22 -10 25 -17 25 -65z m215 36
c11 -18 -14 -64 -46 -83 -16 -9 -27 -21 -24 -26 6 -9 -31 -57 -38 -50 -3 3 -8
17 -12 31 -6 23 1 35 47 82 57 59 63 63 73 46z m545 -139 c0 -5 -7 -10 -16
-10 -8 0 -12 5 -9 10 3 6 10 10 16 10 5 0 9 -4 9 -10z m-700 -90 c0 -38 -1
-39 -20 -28 -23 14 -26 38 -8 56 21 21 28 13 28 -28z"/>
<path d="M10375 8898 c-9 -22 4 -43 17 -30 7 7 7 16 0 29 -10 17 -11 17 -17 1z"/>
<path d="M10733 8754 c-20 -9 -15 -48 8 -62 27 -17 51 1 47 37 -3 26 -27 36
-55 25z"/>
<path d="M10387 8485 c6 -56 6 -62 -7 -140 -13 -82 -18 -358 -7 -397 5 -20 14
-28 30 -28 27 0 36 7 64 43 21 27 22 28 33 8 13 -26 28 -27 37 -3 4 9 10 20
15 23 5 3 11 23 15 43 l6 38 -31 -16 c-17 -9 -37 -25 -45 -36 -13 -19 -14 -19
-33 15 -17 33 -17 36 -2 52 13 12 32 16 78 14 47 -2 60 1 60 12 0 8 -7 20 -16
28 -10 8 -14 22 -10 41 8 39 -13 46 -39 14 -34 -42 -76 -67 -92 -54 -20 16
-16 34 15 70 30 36 32 73 3 81 -12 3 -22 21 -30 52 -15 59 3 145 31 153 19 5
24 17 9 26 -8 6 -59 -28 -73 -48 -3 -5 -8 4 -11 20 -2 16 -2 11 0 -11z m10
-127 c-3 -7 -5 -2 -5 12 0 14 2 19 5 13 2 -7 2 -19 0 -25z"/>
<path d="M10707 8475 c-4 -8 -2 -17 3 -20 6 -4 10 -4 10 -1 0 2 3 11 6 20 3 9
2 16 -4 16 -5 0 -12 -7 -15 -15z"/>
<path d="M10495 8330 c-8 -13 3 -30 21 -30 18 0 18 14 0 29 -10 8 -16 9 -21 1z"/>
<path d="M10683 7932 c-7 -4 -19 -24 -28 -45 -8 -20 -24 -43 -35 -49 -11 -7
-20 -22 -20 -33 0 -18 6 -20 57 -18 65 3 76 13 67 63 -4 19 -7 46 -8 59 -1 26
-14 35 -33 23z"/>
<path d="M10434 7896 c-11 -30 0 -71 21 -74 31 -4 47 12 48 49 2 31 0 34 -31
37 -21 2 -34 -2 -38 -12z"/>
<path d="M10452 7643 c5 -25 28 -28 28 -4 0 12 -6 21 -16 21 -9 0 -14 -7 -12
-17z"/>
<path d="M10740 7630 c0 -5 5 -10 10 -10 6 0 10 5 10 10 0 6 -4 10 -10 10 -5
0 -10 -4 -10 -10z"/>
<path d="M10426 7495 c-3 -8 -1 -28 5 -43 l11 -27 13 25 c9 17 10 30 4 42 -12
22 -25 23 -33 3z"/>
<path d="M10536 7413 c-3 -10 -12 -29 -20 -41 -19 -32 -9 -64 17 -60 14 2 24
14 30 35 15 52 -10 113 -27 66z"/>
<path d="M10370 7376 c0 -31 6 -34 13 -6 3 11 1 23 -4 26 -5 3 -9 -6 -9 -20z"/>
<path d="M10461 7274 c-24 -31 -27 -54 -8 -54 20 0 47 33 47 58 0 29 -14 28
-39 -4z"/>
<path d="M11422 9888 c-48 -23 -58 -48 -47 -111 5 -23 7 -125 6 -227 -2 -148
0 -194 13 -230 9 -25 16 -55 16 -66 0 -27 41 -56 61 -43 10 6 19 2 29 -11 8
-11 26 -21 39 -22 19 -2 26 3 31 22 3 14 14 26 24 28 31 6 86 -8 86 -23 0 -15
35 -30 60 -27 10 2 21 -11 29 -33 7 -19 19 -35 27 -35 19 0 18 -29 -1 -36 -17
-7 -21 -69 -5 -79 18 -11 11 -42 -13 -58 -19 -12 -23 -22 -19 -47 4 -26 -1
-36 -28 -59 -27 -23 -33 -34 -33 -69 0 -42 -8 -54 -36 -59 -8 -1 -30 -10 -48
-20 l-33 -18 -25 30 -25 30 -19 -25 c-11 -13 -17 -28 -14 -33 5 -9 8 -25 21
-162 7 -66 6 -82 -7 -93 -13 -10 -17 -4 -33 48 -11 34 -24 60 -32 60 -8 0 -19
7 -26 15 -10 12 -7 19 14 37 14 13 33 40 41 61 14 34 14 38 -1 44 -9 3 -32 -2
-50 -12 -31 -17 -34 -22 -34 -64 0 -25 4 -53 9 -60 6 -9 6 -22 -1 -34 -7 -14
-6 -32 2 -62 10 -37 10 -47 -4 -66 -18 -26 -22 -114 -6 -124 5 -3 16 9 23 27
l14 33 7 -25 c4 -14 13 -38 19 -53 12 -28 18 -29 78 -11 11 3 18 -3 22 -17 10
-39 48 0 62 64 7 34 31 45 52 24 15 -15 15 -18 -4 -34 -22 -19 -38 -89 -23
-98 5 -3 32 17 61 44 l51 49 -7 50 c-5 38 -3 51 8 55 29 11 40 -8 31 -54 -5
-24 -8 -59 -6 -77 3 -31 5 -33 30 -27 15 5 36 7 47 6 39 -2 65 20 65 56 0 49
17 43 64 -22 14 -20 14 -20 55 2 23 12 41 18 41 13 0 -4 -6 -11 -12 -13 -10
-4 -9 -8 2 -16 16 -12 14 -12 -35 -15 -13 -1 -20 -8 -20 -22 0 -29 -41 -80
-77 -95 -31 -13 -82 -53 -133 -105 -43 -45 -72 -57 -140 -61 -69 -3 -88 -18
-89 -68 -1 -19 -4 -35 -9 -35 -4 0 -13 -11 -19 -25 -7 -15 -17 -24 -25 -21 -7
3 -29 -10 -49 -29 -37 -36 -37 -37 -44 -222 0 -7 -6 -10 -14 -7 -23 9 -27 -45
-29 -376 -2 -443 -5 -437 193 -439 398 -5 482 -5 725 -1 72 1 150 -1 175 -4
25 -4 77 -3 115 1 70 8 70 8 73 41 3 24 -1 32 -13 32 -15 0 -15 2 1 18 16 16
16 17 1 20 -9 2 -17 10 -17 18 0 11 10 8 40 -13 35 -25 40 -33 40 -70 0 -49
-1 -48 157 -58 140 -9 184 6 230 78 38 60 63 153 63 235 0 90 -17 131 -72 171
l-41 30 -510 0 -510 0 -28 27 c-27 26 -29 33 -29 110 0 60 4 85 15 94 22 18
22 407 0 436 -10 13 -14 45 -15 101 0 72 3 86 23 109 26 30 78 54 116 54 15 0
31 4 37 10 11 11 56 2 49 -10 -3 -4 6 -10 20 -12 28 -6 33 6 8 20 -15 9 -14
13 8 43 13 19 29 40 36 47 32 33 -2 61 -51 43 -30 -12 -51 -6 -79 22 -30 30
-25 66 14 98 41 34 60 36 84 9 10 -11 14 -20 9 -20 -5 0 -2 -4 6 -10 10 -6 26
1 56 26 30 24 57 36 90 41 l47 6 -28 -49 c-16 -27 -32 -53 -37 -58 -13 -16 -9
-30 17 -59 21 -22 35 -27 70 -27 39 0 46 -4 59 -29 20 -37 46 -48 64 -24 15
21 9 55 -17 92 -21 30 -37 86 -22 77 5 -3 12 0 15 6 4 9 8 10 11 2 3 -6 12
-20 20 -30 15 -18 17 -17 54 23 21 23 41 40 45 36 10 -11 7 -43 -9 -72 -13
-27 -13 -31 5 -54 23 -29 27 -106 8 -125 -7 -7 -25 -12 -40 -12 -18 0 -28 -5
-28 -15 0 -12 17 -15 93 -15 107 0 168 18 213 61 31 30 31 32 37 155 8 152 2
203 -29 240 -23 28 -24 28 -39 10 -14 -18 -34 -19 -466 -18 -303 1 -456 5
-463 12 -6 6 -10 30 -10 53 6 267 3 380 -11 457 -27 142 -37 222 -31 246 11
42 40 49 206 50 85 0 165 3 176 7 20 7 21 11 11 38 -16 40 2 51 57 35 30 -9
42 -18 44 -34 3 -19 -1 -22 -29 -22 -52 0 -24 -13 39 -19 31 -2 154 -5 272 -5
241 -1 251 1 317 72 67 74 96 259 53 340 -30 57 -44 70 -92 92 -42 18 -70 19
-784 19 -727 0 -740 0 -782 -21z m1184 -115 c10 -14 27 -18 81 -18 37 0 84 2
103 5 31 4 35 3 32 -15 -4 -28 -80 -98 -98 -91 -7 3 -24 2 -36 -3 -14 -5 -31
-3 -47 5 -21 11 -28 11 -41 -1 -33 -30 -45 -17 -41 45 3 31 21 90 28 90 3 0
12 -8 19 -17z m-258 -65 c5 -7 11 -44 13 -83 4 -65 3 -70 -21 -82 -15 -7 -26
-9 -28 -3 -2 6 -12 10 -23 10 -28 0 -35 27 -16 59 9 15 13 37 10 49 -4 15 2
28 18 42 28 23 33 24 47 8z m-308 -171 c0 -35 -4 -44 -17 -44 -42 -1 -53 33
-31 94 12 32 12 32 30 13 12 -12 18 -35 18 -63z m460 42 c0 -5 -4 -9 -10 -9
-5 0 -10 7 -10 16 0 8 5 12 10 9 6 -3 10 -10 10 -16z m326 -3 c12 -49 -13 -60
-39 -17 -18 31 -17 33 25 40 4 0 10 -10 14 -23z m-1028 -49 c7 -8 7 -17 -2
-30 -17 -22 -32 -22 -38 1 -10 37 17 57 40 29z m-108 -1028 c0 -22 -5 -29 -20
-29 -22 0 -26 20 -9 51 14 26 29 15 29 -22z m355 -60 c14 -22 7 -83 -11 -96
-10 -7 -21 -13 -26 -13 -10 0 -11 104 -1 113 10 10 31 8 38 -4z m-387 -58 c2
-32 0 -42 -10 -39 -17 6 -33 51 -25 73 12 29 32 10 35 -34z m862 -56 c0 -8 -4
-15 -10 -15 -5 0 -7 7 -4 15 4 8 8 15 10 15 2 0 4 -7 4 -15z m315 -96 c-4 -12
-16 -30 -26 -40 -18 -18 -19 -18 -19 -1 0 38 13 62 32 62 15 0 18 -5 13 -21z
m-1125 -525 c0 -7 -7 -19 -15 -28 -8 -8 -15 -19 -15 -25 0 -17 -46 -42 -64
-35 -22 8 -21 14 14 54 16 19 29 40 30 47 1 29 50 17 50 -13z m-170 -178 c0
-8 -6 -16 -14 -19 -10 -4 -12 0 -9 14 6 22 23 26 23 5z m20 -106 c0 -10 -7
-23 -16 -31 -13 -10 -17 -10 -25 2 -10 17 -11 26 -3 57 6 22 8 22 25 6 11 -9
19 -25 19 -34z m184 -377 c-9 -49 -10 -50 -34 -28 -24 22 -25 29 -4 49 29 30
46 20 38 -21z m698 -14 c14 -11 31 -19 38 -19 6 0 20 -19 30 -43 10 -23 35
-55 54 -71 46 -36 46 -60 1 -82 -28 -13 -38 -14 -50 -4 -8 7 -30 13 -47 14
-32 1 -33 4 -36 46 -4 50 -38 98 -83 117 -37 15 -41 60 -6 65 34 5 69 -3 99
-23z m-514 -39 c25 -23 24 -22 16 -44 -7 -19 -35 -21 -52 -4 -16 16 -15 68 1
68 7 0 23 -9 35 -20z m-439 -99 c-15 -5 -22 6 -14 19 6 9 10 9 16 -1 5 -8 4
-15 -2 -18z m-69 -34 c0 -5 -4 -5 -10 -2 -5 3 -10 14 -10 23 0 15 2 15 10 2 5
-8 10 -19 10 -23z m937 -29 c-3 -8 -6 -5 -6 6 -1 11 2 17 5 13 3 -3 4 -12 1
-19z m-110 -72 c-4 -12 -37 -15 -37 -3 0 4 0 19 0 35 l1 27 20 -24 c11 -13 18
-29 16 -35z"/>
<path d="M11407 9173 c-4 -3 -7 -18 -7 -32 l0 -25 21 21 c12 11 18 26 15 32
-8 12 -19 14 -29 4z"/>
<path d="M11582 9073 c-15 -39 -69 -102 -104 -124 -21 -13 -38 -29 -38 -35 0
-7 -7 -15 -16 -18 -11 -4 -15 -16 -13 -41 2 -19 -2 -40 -9 -47 -6 -6 -12 -25
-12 -40 l0 -29 28 28 c22 23 34 27 65 25 29 -3 37 0 37 13 0 9 -10 25 -21 34
-24 19 -19 61 7 61 8 0 14 5 14 11 0 5 5 7 10 4 10 -6 12 0 14 45 1 19 6 25
25 25 33 0 47 -39 22 -64 -10 -10 -23 -32 -29 -50 -10 -29 -9 -33 14 -43 49
-22 91 36 64 87 -11 21 -12 30 -1 46 8 14 9 24 2 33 -6 7 -14 30 -19 51 -8 43
-28 57 -40 28z m-145 -255 c-3 -8 -6 -5 -6 6 -1 11 2 17 5 13 3 -3 4 -12 1
-19z"/>
<path d="M11396 8984 c-9 -23 4 -64 20 -64 8 0 14 7 14 15 0 8 7 15 15 15 18
0 18 5 5 31 -13 23 -46 25 -54 3z"/>
<path d="M9222 8262 c-15 -10 -5 -42 13 -42 15 0 28 27 19 41 -6 11 -15 11
-32 1z"/>
<path d="M12450 8176 c0 -14 -4 -28 -10 -31 -5 -3 -10 -10 -10 -16 0 -13 157
-11 166 2 5 8 -3 10 -28 5 -31 -6 -39 -2 -72 29 -21 19 -39 35 -42 35 -2 0 -4
-11 -4 -24z"/>
<path d="M11832 8145 c-6 -14 -18 -25 -27 -25 -8 0 -15 -7 -15 -15 0 -9 9 -15
25 -15 14 0 25 4 25 10 0 5 11 12 25 16 28 7 32 19 11 40 -21 20 -31 18 -44
-11z"/>
<path d="M11755 8150 c-3 -5 -1 -10 4 -10 6 0 11 5 11 10 0 6 -2 10 -4 10 -3
0 -8 -4 -11 -10z"/>
<path d="M11487 8132 c-21 -2 -40 -9 -43 -17 -3 -8 2 -49 10 -92 14 -65 14
-79 3 -88 -22 -16 -37 -51 -37 -85 0 -27 3 -31 22 -28 19 3 37 25 51 63 2 6
13 2 24 -7 11 -10 25 -18 32 -18 17 0 6 61 -13 76 -22 16 -20 56 5 100 17 31
19 41 8 66 -14 34 -14 34 -62 30z"/>
<path d="M11591 8086 c-9 -10 -8 -15 4 -20 10 -4 15 1 15 14 0 24 -4 25 -19 6z"/>
<path d="M8977 7787 c-3 -8 -1 -20 4 -28 6 -10 9 -7 9 14 0 29 -5 35 -13 14z"/>
<path d="M11402 7595 c0 -16 2 -22 5 -12 2 9 2 23 0 30 -3 6 -5 -1 -5 -18z"/>
<path d="M8130 7425 c0 -9 6 -12 15 -9 8 4 15 7 15 9 0 2 -7 5 -15 9 -9 3 -15
0 -15 -9z"/>
<path d="M13298 7033 c-6 -32 4 -84 16 -80 15 5 14 89 -1 94 -6 2 -13 -4 -15
-14z"/>
<path d="M5757 5922 c-32 -4 -61 -42 -53 -70 4 -10 18 -24 31 -30 14 -7 37
-17 51 -24 15 -7 37 -34 51 -63 25 -49 26 -53 19 -198 -6 -148 -6 -148 19
-173 36 -36 80 -33 106 9 17 26 19 42 15 92 -21 209 -20 237 8 287 20 34 36
50 62 58 58 19 69 75 21 102 -20 11 -256 18 -330 10z"/>
<path d="M6740 5924 c-104 -34 -115 -54 -105 -191 4 -62 2 -129 -6 -183 -18
-126 -15 -161 16 -187 14 -13 39 -23 55 -23 44 0 60 23 60 86 0 48 4 60 29 85
16 16 40 29 54 29 13 0 38 5 56 11 25 9 31 17 31 39 0 32 -13 45 -55 54 -58
13 -83 28 -95 57 -26 61 17 109 99 109 30 0 44 6 55 22 22 31 20 45 -9 73 -21
22 -32 25 -97 24 -40 0 -80 -3 -88 -5z"/>
<path d="M10050 5921 c-14 -4 -35 -14 -48 -22 -41 -26 -41 -116 1 -134 12 -6
23 -20 25 -33 4 -24 -15 -55 -28 -47 -16 10 -29 -73 -13 -88 3 -4 31 18 61 48
31 31 60 54 66 52 21 -6 48 -78 54 -140 4 -51 11 -69 39 -103 18 -23 33 -46
33 -53 0 -20 68 -81 91 -81 12 0 19 3 16 7 -4 3 3 11 16 17 15 8 23 22 25 48
3 32 -3 41 -52 90 -70 69 -75 105 -22 157 77 74 71 138 -18 208 -77 62 -184
94 -246 74z"/>
<path d="M7612 5895 c-26 -22 -72 -129 -72 -167 0 -6 -9 -31 -20 -55 -11 -24
-29 -62 -40 -86 -11 -24 -20 -50 -20 -58 0 -8 -9 -31 -20 -52 -11 -20 -20 -55
-20 -77 0 -33 4 -42 24 -51 36 -17 68 -4 95 38 14 21 36 51 50 66 23 25 30 27
66 21 45 -7 71 -23 136 -86 52 -49 76 -68 84 -68 17 0 65 57 65 77 0 24 -32
95 -55 123 -13 16 -39 93 -50 150 -11 58 -83 196 -116 224 -38 33 -69 33 -107
1z"/>
<path d="M8474 5910 c-51 -20 -68 -87 -40 -155 15 -35 29 -44 41 -25 4 6 11 8
16 5 5 -4 9 -1 9 4 0 6 9 11 20 11 22 0 26 -28 14 -89 -8 -37 -58 -68 -80 -50
-11 9 -14 4 -14 -30 0 -60 44 -98 97 -84 16 4 37 6 47 4 32 -5 81 -48 102 -88
23 -45 69 -93 90 -93 8 0 29 13 46 29 40 37 33 70 -27 133 -64 68 -65 85 -16
159 71 106 49 170 -85 245 -53 30 -69 34 -130 33 -38 0 -79 -4 -90 -9z"/>
<path d="M11048 5897 c-29 -24 -68 -95 -68 -124 0 -10 -7 -27 -15 -37 -9 -12
-15 -42 -15 -71 0 -39 -5 -56 -19 -69 -11 -10 -23 -31 -26 -47 -4 -16 -11 -31
-16 -34 -5 -4 -9 -18 -9 -33 0 -14 -12 -38 -27 -54 -24 -25 -25 -30 -13 -52
24 -46 81 -40 119 14 32 45 92 90 120 90 40 0 98 -39 135 -90 20 -27 41 -50
47 -50 5 0 7 -4 4 -10 -9 -14 34 -12 50 3 8 6 21 18 30 25 8 7 15 25 15 39 0
26 -8 45 -77 191 -19 40 -38 97 -43 125 -12 74 -44 140 -85 176 -42 37 -70 39
-107 8z"/>
<path d="M13002 5899 c-11 -11 -29 -48 -40 -82 -11 -34 -31 -87 -45 -117 -13
-30 -27 -77 -31 -105 -4 -27 -9 -58 -12 -68 -4 -12 4 -23 25 -35 37 -20 44
-62 11 -62 -11 0 -20 -7 -20 -16 0 -8 -14 -20 -30 -26 -25 -8 -28 -13 -19 -24
19 -23 43 -16 84 26 41 42 85 60 148 60 32 0 45 -8 91 -52 29 -29 60 -59 69
-65 19 -15 41 -17 33 -4 -3 5 5 12 18 15 13 3 29 18 35 35 11 24 9 36 -7 72
-11 24 -31 73 -45 109 -14 36 -38 89 -52 118 -14 30 -30 76 -35 104 -12 63
-34 99 -72 121 -40 23 -83 22 -106 -4z"/>
<path d="M13855 5910 c-47 -18 -50 -33 -50 -224 -1 -100 -5 -202 -9 -228 -15
-87 38 -125 109 -78 40 27 106 27 130 0 10 -11 33 -22 51 -26 27 -5 40 -1 65
20 44 37 112 37 151 -1 21 -20 38 -27 64 -26 43 1 53 10 63 54 10 45 -7 427
-20 460 -12 30 -57 59 -93 59 -15 0 -38 -13 -59 -34 -27 -27 -37 -50 -56 -127
-36 -149 -62 -188 -114 -175 -22 5 -29 16 -41 59 -8 28 -17 69 -21 91 -3 21
-20 64 -37 97 -24 46 -38 61 -69 73 -22 9 -40 16 -42 15 -1 0 -11 -4 -22 -9z"/>
<path d="M15087 5890 c-28 -24 -37 -44 -55 -115 -12 -47 -22 -97 -22 -110 0
-13 -4 -26 -9 -30 -5 -3 -15 -22 -22 -43 -6 -20 -27 -69 -45 -108 -40 -84 -42
-108 -9 -130 37 -24 81 -10 110 37 44 69 110 95 161 63 40 -25 143 -122 136
-129 -3 -3 12 -5 33 -5 21 0 36 3 33 6 -4 3 3 15 14 26 17 17 19 28 14 66 -3
25 -12 53 -20 61 -26 30 -54 96 -74 176 -23 92 -91 226 -127 249 -38 25 -80
20 -118 -14z"/>
<path d="M15933 5898 c-11 -13 -23 -32 -26 -43 -3 -11 -7 -125 -9 -253 -3
-222 -2 -234 16 -248 28 -20 70 -17 91 6 16 17 17 32 11 119 -6 86 -5 99 9
105 54 20 106 -23 161 -134 21 -41 47 -83 58 -92 12 -10 26 -22 33 -28 7 -5
29 -10 50 -10 31 1 43 7 63 34 25 33 25 33 25 264 0 218 -1 232 -21 259 -25
34 -68 42 -95 17 -16 -14 -19 -31 -19 -110 0 -71 -4 -96 -16 -108 -39 -39 -72
-11 -144 124 -48 89 -83 120 -136 120 -19 0 -38 -8 -51 -22z"/>
<path d="M3917 5885 l-27 -26 1 -224 c0 -223 0 -225 24 -254 14 -16 36 -32 50
-35 14 -4 25 -11 25 -16 0 -6 45 -10 111 -10 103 0 112 2 130 23 23 28 24 59
2 86 -13 15 -37 23 -93 31 -50 7 -80 16 -89 28 -10 13 -12 52 -8 178 5 171 -2
212 -42 233 -31 17 -54 13 -84 -14z"/>
<path d="M5107 5892 c-15 -16 -17 -43 -17 -188 0 -176 -4 -196 -48 -231 -27
-22 -96 -16 -120 10 -36 38 -43 81 -31 179 13 99 7 160 -21 206 -17 27 -25 32
-59 32 -71 0 -73 -6 -69 -229 l3 -197 40 -51 c22 -28 54 -60 72 -69 17 -10 30
-22 27 -26 -3 -4 38 -8 90 -8 53 0 96 4 96 9 0 5 10 11 23 15 34 8 104 83 122
130 13 34 16 74 13 209 -3 150 -5 168 -24 194 -26 35 -73 42 -97 15z"/>
<path d="M12201 5884 c-16 -20 -21 -41 -21 -83 0 -48 -4 -62 -31 -94 -33 -40
-55 -45 -97 -23 -46 24 -69 58 -82 119 -14 68 -38 97 -79 97 -59 0 -60 -5 -58
-285 1 -139 5 -256 8 -260 4 -3 25 -7 47 -8 62 -2 82 21 82 97 0 69 14 97 60
121 47 24 82 19 118 -18 30 -30 32 -38 32 -100 0 -68 2 -72 54 -114 18 -16 30
-17 21 -3 -3 6 1 10 9 10 9 0 25 9 36 20 19 19 20 33 20 249 0 221 -1 229 -23
262 -30 45 -67 50 -96 13z"/>
<path d="M8450 5701 c0 -6 5 -13 10 -16 6 -3 10 1 10 9 0 9 -4 16 -10 16 -5 0
-10 -4 -10 -9z"/>
<path d="M9976 5478 c-4 -29 -7 -64 -8 -78 0 -27 34 -60 63 -60 25 0 42 36 34
68 -4 15 -10 21 -12 14 -9 -25 -53 36 -53 74 0 53 -17 40 -24 -18z"/>
<path d="M8480 5425 c0 -9 -11 -20 -25 -25 -29 -11 -31 -22 -9 -44 21 -21 40
-20 64 4 24 24 25 43 4 64 -20 20 -34 20 -34 1z"/>
<path d="M3870 2965 c0 -4 7 -19 15 -36 12 -22 13 -38 7 -62 -6 -17 -37 -122
-71 -233 -33 -110 -61 -206 -61 -213 0 -16 49 -33 75 -27 11 3 85 46 165 95
79 50 145 90 146 88 1 -1 -16 -85 -37 -186 -22 -101 -38 -190 -35 -197 3 -7
21 -16 41 -20 40 -7 35 -10 283 183 124 97 135 103 167 97 55 -10 42 9 -43 65
-98 64 -133 69 -77 11 13 -14 21 -30 17 -36 -17 -27 -277 -224 -279 -212 -2 7
17 102 41 211 35 162 40 199 30 208 -18 15 -22 13 -170 -83 -165 -107 -204
-131 -208 -127 -6 6 95 333 105 343 5 6 22 3 44 -7 22 -11 36 -13 41 -6 3 6 4
12 3 13 -2 2 -44 33 -93 69 -82 62 -106 76 -106 62z"/>
<path d="M16295 2880 c-43 -9 -69 -25 -99 -60 -25 -31 -66 -143 -66 -183 0
-20 -2 -19 -28 7 -68 65 -164 33 -219 -73 -18 -34 -35 -84 -39 -111 -4 -28 -9
-50 -13 -50 -3 0 -21 23 -39 50 -17 28 -38 50 -46 50 -7 0 -25 -17 -40 -39
-15 -21 -38 -49 -51 -61 -32 -30 -23 -42 18 -25 20 8 38 10 48 4 15 -8 209
-300 209 -315 0 -3 -14 -23 -30 -44 -17 -21 -27 -41 -22 -43 9 -7 235 139 241
155 3 10 -1 10 -73 -8 -27 -7 -26 -7 -115 129 l-58 89 9 61 c18 121 75 195
131 170 14 -7 68 -73 126 -158 56 -81 101 -148 101 -150 0 -3 -14 -20 -30 -39
-46 -52 -18 -55 53 -5 125 87 167 120 162 128 -2 5 -25 1 -51 -8 l-46 -16 -24
30 c-13 17 -49 67 -80 112 l-56 83 12 72 c12 80 31 121 71 150 39 29 70 9 151
-101 39 -53 83 -112 98 -131 44 -58 44 -59 11 -100 -17 -21 -27 -42 -21 -45
14 -9 243 166 232 177 -6 6 -21 4 -40 -6 -17 -9 -39 -16 -49 -15 -11 0 -56 51
-118 135 -137 184 -153 198 -220 184z"/>
<path d="M4620 2441 c0 -5 7 -22 16 -38 16 -27 14 -39 -35 -271 -28 -134 -49
-247 -46 -253 4 -5 24 -9 45 -9 34 0 55 12 160 93 173 132 160 124 160 96 -1
-13 -11 -100 -24 -194 -13 -93 -22 -173 -19 -177 2 -5 24 -8 47 -8 42 0 48 5
215 161 150 139 176 160 201 157 51 -5 34 14 -53 63 -62 34 -87 43 -91 34 -3
-8 6 -21 20 -29 13 -9 24 -23 24 -30 0 -21 -254 -260 -258 -243 -2 8 9 104 23
213 26 200 26 215 -10 213 -5 0 -82 -58 -170 -129 -88 -70 -162 -124 -163
-119 -2 5 13 88 34 185 42 191 35 179 102 159 48 -15 18 15 -65 68 -114 70
-113 70 -113 58z"/>
<path d="M15389 2277 c-139 -39 -219 -145 -219 -291 0 -247 287 -351 454 -165
53 59 76 121 76 203 -1 169 -156 295 -311 253z m96 -96 c85 -38 145 -129 145
-219 0 -45 -4 -57 -35 -91 -45 -50 -82 -65 -145 -59 -110 11 -200 105 -208
217 -5 71 13 111 66 145 46 31 119 34 177 7z"/>
<path d="M14903 2016 c-168 -53 -275 -244 -218 -393 40 -103 129 -167 235
-167 115 0 207 66 249 179 25 67 25 65 3 65 -10 0 -27 -18 -41 -46 -29 -53
-56 -77 -116 -100 -85 -32 -172 0 -229 85 -24 36 -30 57 -34 115 -3 62 -1 75
20 106 13 19 43 45 68 58 39 20 54 23 112 18 l67 -6 -4 40 c-3 23 -7 45 -10
50 -8 13 -51 11 -102 -4z"/>
<path d="M5400 1990 c0 -6 9 -23 20 -38 19 -27 19 -28 -5 -206 -13 -98 -27
-211 -31 -252 l-7 -74 44 0 c42 1 50 6 174 120 71 65 131 117 132 116 2 -2 -1
-88 -7 -192 -5 -103 -6 -192 -1 -197 5 -5 25 -7 46 -5 35 3 49 14 139 113 56
61 126 139 157 175 49 56 61 64 88 62 58 -4 32 22 -57 60 -89 37 -118 34 -66
-7 l28 -23 -26 -33 c-14 -19 -70 -83 -124 -144 l-97 -110 7 204 c4 112 10 209
13 216 2 8 -5 19 -17 25 -19 10 -35 -3 -172 -134 -83 -81 -155 -146 -158 -146
-7 0 22 243 38 325 8 42 20 47 70 31 15 -5 22 -3 22 6 0 7 -47 37 -105 66 -58
28 -105 47 -105 42z"/>
<path d="M14001 1946 c-7 -9 -33 -28 -57 -43 -54 -34 -56 -47 -5 -39 49 8 58
-2 110 -129 23 -55 45 -106 48 -112 4 -9 -7 -13 -38 -13 -92 0 -196 -77 -242
-179 -30 -65 -30 -180 0 -236 28 -53 78 -99 133 -124 110 -50 213 -7 283 117
l24 43 27 -36 c39 -50 64 -47 120 17 62 71 64 99 4 57 -28 -20 -31 -20 -46 -5
-10 9 -82 168 -162 354 -119 276 -149 338 -166 340 -11 2 -26 -4 -33 -12z m99
-406 c33 -10 38 -16 83 -127 29 -70 46 -125 43 -138 -8 -30 -61 -101 -91 -121
-28 -18 -86 -21 -127 -5 -74 28 -138 130 -138 223 0 74 57 144 138 168 37 11
52 11 92 0z"/>
<path d="M6645 1624 c-36 -13 -42 -20 -61 -72 -18 -49 -24 -57 -43 -54 -33 5
-71 -6 -71 -21 0 -7 16 -19 36 -26 22 -8 34 -18 30 -26 -61 -159 -126 -351
-126 -371 0 -38 29 -81 64 -96 34 -14 165 -17 209 -5 47 13 25 32 -44 38 -138
12 -145 26 -89 188 59 171 77 215 88 219 6 2 40 -11 76 -28 67 -31 103 -33
126 -5 14 17 -13 32 -115 65 -38 12 -71 24 -73 25 -1 1 10 38 26 81 27 72 31
105 14 103 -4 0 -25 -7 -47 -15z"/>
<path d="M13090 1609 c-14 -11 -42 -29 -62 -40 -48 -25 -48 -39 0 -39 32 0 41
-5 51 -26 6 -14 54 -166 107 -337 52 -171 100 -315 107 -319 7 -4 55 -8 108
-8 82 0 102 3 147 26 100 50 156 143 157 259 0 179 -159 326 -283 261 -37 -20
-96 -83 -125 -134 -14 -24 -27 -40 -29 -35 -3 4 -31 94 -63 198 -56 180 -69
215 -84 215 -3 0 -17 -9 -31 -21z m432 -315 c58 -30 118 -139 118 -215 0 -99
-54 -149 -170 -156 -103 -8 -110 -2 -148 121 l-32 106 20 40 c28 55 86 118
113 123 28 5 65 -2 99 -19z"/>
<path d="M14567 1410 c-34 -27 -43 -70 -22 -109 21 -42 65 -43 106 -2 33 33
36 58 14 101 -19 36 -59 40 -98 10z"/>
<path d="M8108 1363 c-51 -3 -68 -8 -68 -18 0 -8 6 -15 14 -15 8 0 24 -8 37
-19 l23 -18 -24 -114 c-62 -303 -120 -572 -124 -576 -2 -3 -23 -7 -45 -10 -43
-6 -53 -18 -23 -27 41 -12 213 -46 232 -46 32 0 23 15 -20 35 -22 10 -40 25
-40 34 0 9 10 66 21 126 20 102 24 112 58 142 50 44 133 83 176 83 25 0 43 -8
61 -25 23 -24 25 -31 19 -78 -20 -144 -53 -300 -66 -308 -8 -5 -29 -9 -46 -9
-21 0 -33 -5 -33 -14 0 -9 32 -18 108 -30 59 -9 119 -19 135 -22 40 -8 33 12
-13 36 -22 11 -40 23 -40 26 0 3 13 89 30 190 29 178 29 195 8 240 -37 78
-182 75 -307 -8 -24 -16 -45 -27 -47 -25 -2 2 16 100 40 218 42 209 44 243 12
237 -6 -1 -41 -3 -78 -5z"/>
<path d="M7023 1286 c-202 -63 -275 -300 -137 -440 75 -75 208 -93 317 -43 36
16 57 32 54 39 -5 15 -10 14 -90 -3 -99 -23 -192 16 -228 95 -20 45 -26 151
-8 161 5 4 72 -13 147 -36 126 -40 220 -54 238 -36 13 13 16 96 4 133 -20 61
-49 94 -104 120 -58 27 -127 30 -193 10z m155 -56 c41 -25 65 -79 56 -126 -3
-18 -12 -34 -19 -34 -7 0 -70 18 -140 41 l-127 40 24 31 c51 66 142 87 206 48z"/>
<path d="M12948 1223 c-49 -14 -88 -30 -88 -34 0 -5 18 -9 40 -9 37 0 40 -2
40 -27 0 -32 -40 -357 -45 -361 -6 -6 -235 292 -235 305 0 7 14 20 31 29 58
29 15 32 -93 5 -65 -16 -108 -31 -108 -38 0 -8 12 -13 29 -13 24 0 38 -10 73
-56 24 -31 96 -124 162 -207 114 -144 118 -152 113 -189 -3 -22 -17 -64 -32
-94 -31 -62 -68 -87 -130 -86 -35 0 -43 -4 -63 -34 -33 -51 -29 -64 21 -64 99
0 172 48 224 147 39 74 47 110 83 388 16 127 32 249 35 272 4 29 13 46 30 57
27 18 33 36 13 35 -7 0 -52 -12 -100 -26z"/>
<path d="M6138 1204 c-48 -26 -63 -78 -30 -107 46 -41 121 -24 140 33 14 39 7
57 -29 75 -35 18 -47 18 -81 -1z"/>
<path d="M10692 1168 c-63 -20 -74 -38 -23 -38 16 0 34 -7 41 -15 10 -13 34
-264 25 -273 -2 -2 -12 1 -23 7 -33 18 -142 13 -189 -8 -62 -29 -129 -96 -159
-159 -23 -49 -26 -65 -22 -129 4 -58 11 -82 34 -120 40 -64 99 -105 162 -111
67 -6 112 11 171 64 52 47 54 47 65 -1 16 -66 37 -69 123 -18 68 39 73 58 13
48 -24 -4 -41 -2 -45 5 -4 6 -18 177 -31 378 -14 202 -27 373 -29 380 -6 16
-38 14 -113 -10z m8 -388 c44 -22 45 -28 54 -198 l4 -92 -31 -30 c-48 -45
-112 -74 -149 -66 -167 33 -199 324 -43 392 45 20 120 17 165 -6z"/>
<path d="M7590 1127 c-19 -8 -46 -19 -60 -25 -32 -13 -96 -75 -114 -110 -8
-15 -19 -51 -24 -80 -18 -97 16 -189 90 -246 43 -32 141 -58 188 -50 42 8 150
61 150 74 0 18 -19 20 -60 5 -190 -67 -340 112 -246 294 16 30 61 73 93 90 58
30 170 -5 205 -65 11 -19 24 -34 28 -34 10 0 60 58 60 70 0 14 -30 40 -74 62
-52 27 -184 35 -236 15z"/>
<path d="M12199 1050 c-38 -20 -103 -88 -122 -127 -10 -22 -11 -21 -28 17 -48
106 -191 83 -284 -45 -21 -30 -42 -52 -45 -50 -4 3 -10 25 -13 51 -7 69 -15
72 -101 33 -79 -35 -87 -49 -30 -49 26 0 37 -5 44 -22 17 -41 59 -362 49 -374
-5 -7 -23 -17 -39 -24 -38 -16 -39 -30 -2 -29 62 1 236 35 240 47 2 8 -9 12
-35 12 -21 0 -43 4 -48 8 -11 7 -45 202 -45 251 0 50 99 172 149 184 31 8 60
-8 71 -38 5 -14 23 -98 40 -187 28 -154 29 -164 12 -176 -9 -7 -27 -15 -39
-19 -24 -5 -32 -33 -10 -33 50 2 251 47 255 58 2 8 -6 12 -25 12 -68 0 -68 1
-93 141 -23 126 -23 129 -5 169 24 54 93 127 128 135 18 5 35 2 51 -9 25 -16
26 -20 85 -288 l19 -88 -39 -22 c-21 -12 -39 -25 -39 -30 0 -13 30 -10 150 17
62 14 115 25 117 25 1 0 3 4 3 9 0 5 -22 12 -50 16 -27 4 -50 9 -50 11 0 20
-82 369 -90 384 -26 49 -117 64 -181 30z"/>
<path d="M8865 920 c-113 -16 -248 -108 -177 -122 43 -8 83 4 97 32 20 39 74
56 126 41 46 -14 69 -44 69 -91 0 -76 -1 -77 -108 -83 -123 -8 -166 -22 -219
-73 -43 -40 -50 -60 -44 -124 3 -35 45 -75 92 -89 50 -15 133 0 196 34 l41 23
11 -43 c6 -24 18 -46 27 -49 30 -11 154 32 154 54 0 6 -18 10 -39 10 -22 0
-42 4 -45 9 -3 5 3 89 14 187 18 170 18 181 2 214 -29 59 -97 83 -197 70z
m101 -282 c-3 -13 -8 -44 -11 -71 -6 -43 -10 -49 -47 -68 -22 -11 -64 -23 -92
-26 -42 -4 -56 -1 -78 17 -55 43 -19 124 67 155 22 8 68 14 103 15 60 0 62 -1
58 -22z"/>
<path d="M11184 894 c-88 -32 -160 -118 -179 -213 -24 -116 13 -212 104 -276
40 -28 49 -30 129 -30 76 0 93 3 133 27 44 26 119 99 119 116 0 22 -17 17 -75
-23 -131 -89 -255 -60 -310 72 -8 20 -15 44 -15 54 0 21 10 23 190 40 138 13
190 33 190 73 0 36 -42 108 -83 140 -31 25 -48 31 -100 33 -37 1 -79 -4 -103
-13z m132 -59 c22 -14 54 -72 54 -99 0 -9 -12 -17 -32 -20 -72 -12 -240 -27
-246 -22 -3 3 0 25 7 48 29 95 139 142 217 93z"/>
<path d="M9413 856 c-86 -27 -161 -96 -194 -176 -24 -59 -18 -147 14 -212 75
-154 292 -177 415 -45 37 40 8 43 -63 7 -56 -28 -69 -31 -114 -25 -99 13 -170
95 -171 196 0 83 41 164 100 194 58 30 170 11 203 -34 24 -34 36 -33 57 9 26
50 19 62 -47 84 -56 19 -142 20 -200 2z"/>
<path d="M9960 841 c-77 -24 -170 -90 -170 -122 0 -40 90 -17 112 28 23 48 95
68 153 41 29 -13 48 -65 43 -117 l-3 -35 -95 -17 c-148 -26 -196 -52 -231
-122 -41 -80 -8 -153 79 -177 50 -13 138 9 199 50 24 17 46 30 49 30 2 0 4
-10 4 -23 0 -30 27 -67 48 -67 9 0 45 13 79 30 45 20 61 33 57 44 -4 11 -13
12 -36 5 -55 -15 -58 -6 -58 193 0 198 -6 225 -60 253 -31 16 -126 19 -170 6z
m140 -319 l0 -67 -44 -28 c-51 -32 -120 -47 -159 -34 -57 19 -50 113 12 154
27 18 170 54 184 46 4 -2 7 -34 7 -71z"/>
</g>
</svg>
